M48
;Layer_Color=9474304
;FILE_FORMAT=2:5
INCH,LZ
;TYPE=PLATED
T1F00S00C0.01181
T2F00S00C0.01575
T3F00S00C0.02559
T4F00S00C0.03937
T5F00S00C0.11811
;TYPE=NON_PLATED
T6F00S00C0.03543
%
T01
X0472441Y0266142
X0479921Y0265354
X0489764
X0490158Y0287795
X0491732Y0294882
X0490158Y0300394
X0495276Y0307087
X0509449Y0300394
X0516142Y0310236
X0540158Y0311024
X054685
Y0303937
X0552756
X0554724Y0291339
X0532283Y0287008
X0523622Y0290158
X0520079Y0275197
Y0265748
X0524409Y0269291
X0554331Y0262205
X0542126Y0241339
X0529921Y0237402
X0495276Y0244094
X0466142Y0270866
X0445276Y0300394
X0453543Y0312205
X0441732Y0235433
Y0229528
Y0223228
X0432677
Y0229528
Y0235433
X0422835
Y0229528
X0413386Y0235433
X0445669Y0316142
X0467323Y0358661
X0462992Y0382283
X0519685Y0376378
X0538583Y0351181
X0527559Y0334252
X0525591Y0319685
X0540158Y0317717
X054685
X0552756
X0501181Y0318898
X0508661Y0329921
T02
X0515354Y0259449
X0516535Y0280709
X0468504Y0329134
X0462598Y0352362
X0413386Y0335433
T03
X0555512Y0334252
Y0348031
X0555709Y0369685
Y0383465
T04
X0469764Y0233071
X0479764
X0489764
X0499772Y0233056
X05625Y0245739
X0562515Y0255748
Y0265748
X0562402Y0279528
X0562417Y0289536
Y0299536
Y0309536
X0400787Y0317008
Y0327008
Y0337008
Y0347008
X0400802Y0357016
X0418898Y0368504
X0448819
T05
X0562008Y0225394
X0401968Y0225197
Y0385827
T06
X0408465Y0260039
X0439961
M30
