G04*
G04 #@! TF.GenerationSoftware,Altium Limited,Altium Designer,21.6.1 (37)*
G04*
G04 Layer_Color=32768*
%FSLAX25Y25*%
%MOIN*%
G70*
G04*
G04 #@! TF.SameCoordinates,5AA223CE-A3B5-4ABD-9865-E1F73ECA8A72*
G04*
G04*
G04 #@! TF.FilePolarity,Positive*
G04*
G01*
G75*
%ADD11C,0.01000*%
%ADD13C,0.00394*%
G36*
X540119Y323826D02*
X540969Y322976D01*
X540112D01*
X540119Y322983D01*
Y323826D01*
X541552D01*
X542395Y322983D01*
X540119D01*
Y323826D01*
X540147Y323853D01*
Y324479D01*
X540711D01*
X541509Y323681D01*
X540119Y323826D01*
D02*
G37*
G36*
X540316Y359259D02*
X541165Y358409D01*
X540309D01*
X540316Y358416D01*
Y359259D01*
X541749D01*
X542592Y358416D01*
X540316D01*
Y359259D01*
X540344Y359286D01*
Y359912D01*
X540907D01*
X541706Y359114D01*
X540316Y359259D01*
D02*
G37*
D11*
X476918Y302885D02*
G03*
X476918Y302885I-394J0D01*
G01*
D13*
X540316Y359259D02*
Y393768D01*
X570989D01*
Y358453D02*
Y393768D01*
X570953Y358416D02*
X570989Y358453D01*
X540316Y358416D02*
X570953D01*
X540316D02*
Y359259D01*
X550393Y272441D02*
Y290552D01*
X540945Y272441D02*
X550393D01*
X540945D02*
Y290552D01*
X550393D01*
X556693Y252756D02*
Y270866D01*
X547244Y252756D02*
X556693D01*
X547244D02*
Y270866D01*
X556693D01*
X505383Y227741D02*
Y238666D01*
X464339Y227741D02*
X505383D01*
X464241Y227839D02*
X464339Y227741D01*
X464241Y227839D02*
Y238568D01*
X505284D01*
X505383Y238666D01*
X393764Y308956D02*
X395732D01*
X393764Y242027D02*
Y308956D01*
Y242027D02*
X460693D01*
Y308956D01*
X459709D02*
X460693D01*
X395732D02*
X459709D01*
X425197Y308661D02*
Y318110D01*
Y308661D02*
X443307D01*
Y318110D01*
X425197D02*
X443307D01*
X426870Y339370D02*
X461516D01*
X426870Y317815D02*
Y339370D01*
Y317815D02*
X461417D01*
X461516Y317913D01*
Y339370D01*
X417323Y320472D02*
Y338582D01*
X426772D01*
Y320472D02*
Y338582D01*
X417323Y320472D02*
X426772D01*
X407480Y312598D02*
Y330709D01*
X416929D01*
Y312598D02*
Y330709D01*
X407480Y312598D02*
X416929D01*
X394897Y362528D02*
X405921D01*
Y311347D02*
Y362528D01*
X394897Y311347D02*
X405921D01*
X394897D02*
Y362528D01*
X409055Y392913D02*
X458268D01*
Y344094D02*
Y392913D01*
X409055Y344094D02*
X458268D01*
X409055D02*
Y392913D01*
X529646Y373965D02*
X532646D01*
X531146Y372465D02*
Y375465D01*
X528740Y371949D02*
Y392914D01*
X537402D01*
Y371949D02*
Y392914D01*
X528740Y371949D02*
X537402D01*
X504331Y376378D02*
Y380315D01*
X502362Y378346D02*
X506299D01*
X482087Y392717D02*
X526575D01*
X482087Y363976D02*
X526575D01*
X482087D02*
Y392717D01*
X526575Y363976D02*
Y392717D01*
X532709Y368161D02*
X535709D01*
X534209Y366661D02*
Y369661D01*
X536614Y349212D02*
Y370177D01*
X527953Y349212D02*
X536614D01*
X527953D02*
Y370177D01*
X536614D01*
X504331Y346457D02*
Y350394D01*
X502362Y348425D02*
X506299D01*
X482087Y362795D02*
X526575D01*
X482087Y334055D02*
X526575D01*
X482087D02*
Y362795D01*
X526575Y334055D02*
Y362795D01*
X540119Y323826D02*
Y358335D01*
X570792D01*
Y323020D02*
Y358335D01*
X570756Y322983D02*
X570792Y323020D01*
X540119Y322983D02*
X570756D01*
X540119D02*
Y323826D01*
X470472Y366929D02*
X479921D01*
Y385039D01*
X470472D02*
X479921D01*
X470472Y366929D02*
Y385039D01*
X526181Y251575D02*
Y272047D01*
X546654Y251575D02*
Y272047D01*
X526181D02*
X546654D01*
X526181Y251575D02*
X546654D01*
X534449Y261811D02*
X538386D01*
X536417Y259842D02*
Y263779D01*
X540158Y272835D02*
Y282284D01*
X522048D02*
X540158D01*
X522048Y272835D02*
Y282284D01*
Y272835D02*
X540158D01*
X533267Y241338D02*
Y250787D01*
Y241338D02*
X551378D01*
Y250787D01*
X533267D02*
X551378D01*
X533071Y231496D02*
Y240945D01*
Y231496D02*
X551181D01*
Y240945D01*
X533071D02*
X551181D01*
X532677Y241339D02*
Y250788D01*
X514567D02*
X532677D01*
X514567Y241339D02*
Y250788D01*
Y241339D02*
X532677D01*
X478671Y292505D02*
Y305589D01*
X463399Y292505D02*
X478671D01*
X463399D02*
Y305589D01*
X478671D01*
X527165Y316929D02*
X536614D01*
X527165Y298819D02*
Y316929D01*
Y298819D02*
X536614D01*
Y316929D01*
X529528Y322441D02*
Y331890D01*
X511417D02*
X529528D01*
X511417Y322441D02*
Y331890D01*
Y322441D02*
X529528D01*
X480708Y326771D02*
X498818D01*
Y317322D02*
Y326771D01*
X480708Y317322D02*
X498818D01*
X480708D02*
Y326771D01*
X480315Y316142D02*
Y325591D01*
X462205D02*
X480315D01*
X462205Y316142D02*
Y325591D01*
Y316142D02*
X480315D01*
X479921Y272835D02*
Y282284D01*
X461811D02*
X479921D01*
X461811Y272835D02*
Y282284D01*
Y272835D02*
X479921D01*
X557087Y273917D02*
X568012D01*
X557087D02*
Y314961D01*
X557185Y315059D01*
X567913D01*
Y274016D02*
Y315059D01*
Y274016D02*
X568012Y273917D01*
X568110Y240523D02*
Y271133D01*
X568012Y271232D02*
X568110Y271133D01*
X557185Y271232D02*
X568012D01*
X557185Y240424D02*
Y271232D01*
Y240424D02*
X568012D01*
X486220Y253937D02*
Y263386D01*
Y253937D02*
X504330D01*
Y263386D01*
X486220D02*
X504330D01*
X490158Y244488D02*
Y253937D01*
X472047D02*
X490158D01*
X472047Y244488D02*
Y253937D01*
Y244488D02*
X490158D01*
X472835Y340551D02*
X482283D01*
Y358661D01*
X472835D02*
X482283D01*
X472835Y340551D02*
Y358661D01*
X498819Y263386D02*
Y272834D01*
Y263386D02*
X516929D01*
Y272834D01*
X498819D02*
X516929D01*
X480512Y275787D02*
Y316732D01*
X521457Y275787D02*
Y316732D01*
X480512D02*
X521457D01*
X480512Y275787D02*
X521457D01*
X499016Y296260D02*
X502953D01*
X500984Y294291D02*
Y298228D01*
X479921Y282284D02*
Y291733D01*
X461811D02*
X479921D01*
X461811Y282284D02*
Y291733D01*
Y282284D02*
X479921D01*
X462205Y306299D02*
Y315748D01*
Y306299D02*
X480315D01*
Y315748D01*
X462205D02*
X480315D01*
M02*
