G04*
G04 #@! TF.GenerationSoftware,Altium Limited,Altium Designer,21.6.1 (37)*
G04*
G04 Layer_Color=2752767*
%FSLAX25Y25*%
%MOIN*%
G70*
G04*
G04 #@! TF.SameCoordinates,5AA223CE-A3B5-4ABD-9865-E1F73ECA8A72*
G04*
G04*
G04 #@! TF.FilePolarity,Positive*
G04*
G01*
G75*
%ADD65C,0.00200*%
%ADD66C,0.00267*%
D65*
X554909Y382665D02*
Y384265D01*
X556509D01*
Y382665D01*
X554909D01*
Y368885D02*
Y370485D01*
X556509D01*
Y368885D01*
X554909D01*
X469764Y232271D02*
X468964Y233871D01*
X470564D01*
X469764Y232271D01*
X479764D02*
X478964Y233871D01*
X480564D01*
X479764Y232271D01*
X489764D02*
X488964Y233871D01*
X490564D01*
X489764Y232271D01*
X499772Y232256D02*
X498972Y233856D01*
X500572D01*
X499772Y232256D01*
X408465Y259239D02*
X408865Y259639D01*
X409265D01*
X408865Y260039D01*
X409265Y260439D01*
X408865D01*
X408465Y260839D01*
X408065Y260439D01*
X407665D01*
X408065Y260039D01*
X407665Y259639D01*
X408065D01*
X408465Y259239D01*
X439961D02*
X440361Y259639D01*
X440761D01*
X440361Y260039D01*
X440761Y260439D01*
X440361D01*
X439961Y260839D01*
X439561Y260439D01*
X439161D01*
X439561Y260039D01*
X439161Y259639D01*
X439561D01*
X439961Y259239D01*
X400802Y356217D02*
X400002Y357817D01*
X401602D01*
X400802Y356217D01*
X400787Y346208D02*
X399987Y347808D01*
X401587D01*
X400787Y346208D01*
Y336208D02*
X399987Y337808D01*
X401587D01*
X400787Y336208D01*
Y326208D02*
X399987Y327808D01*
X401587D01*
X400787Y326208D01*
Y316208D02*
X399987Y317808D01*
X401587D01*
X400787Y316208D01*
X448819Y367704D02*
X448019Y369304D01*
X449619D01*
X448819Y367704D01*
X418898D02*
X418098Y369304D01*
X419698D01*
X418898Y367704D01*
X554712Y347232D02*
Y348832D01*
X556312D01*
Y347232D01*
X554712D01*
Y333452D02*
Y335052D01*
X556312D01*
Y333452D01*
X554712D01*
X562417Y308736D02*
X561617Y310336D01*
X563217D01*
X562417Y308736D01*
Y298736D02*
X561617Y300336D01*
X563217D01*
X562417Y298736D01*
Y288736D02*
X561617Y290336D01*
X563217D01*
X562417Y288736D01*
X562402Y278728D02*
X561602Y280328D01*
X563202D01*
X562402Y278728D01*
X562500Y244939D02*
X561700Y246539D01*
X563300D01*
X562500Y244939D01*
X562515Y254948D02*
X561715Y256548D01*
X563315D01*
X562515Y254948D01*
Y264948D02*
X561715Y266548D01*
X563315D01*
X562515Y264948D01*
X551956Y303137D02*
X552356Y303937D01*
X551956Y304737D01*
X552756Y304337D01*
X553556Y304737D01*
X553156Y303937D01*
X553556Y303137D01*
X552756Y303537D01*
X551956Y303137D01*
X546050D02*
X546450Y303937D01*
X546050Y304737D01*
X546850Y304337D01*
X547650Y304737D01*
X547250Y303937D01*
X547650Y303137D01*
X546850Y303537D01*
X546050Y303137D01*
Y310224D02*
X546450Y311024D01*
X546050Y311824D01*
X546850Y311424D01*
X547650Y311824D01*
X547250Y311024D01*
X547650Y310224D01*
X546850Y310624D01*
X546050Y310224D01*
X539358D02*
X539757Y311024D01*
X539358Y311824D01*
X540158Y311424D01*
X540957Y311824D01*
X540557Y311024D01*
X540957Y310224D01*
X540158Y310624D01*
X539358Y310224D01*
X551956Y316916D02*
X552356Y317717D01*
X551956Y318516D01*
X552756Y318116D01*
X553556Y318516D01*
X553156Y317717D01*
X553556Y316916D01*
X552756Y317317D01*
X551956Y316916D01*
X546050D02*
X546450Y317717D01*
X546050Y318516D01*
X546850Y318116D01*
X547650Y318516D01*
X547250Y317717D01*
X547650Y316916D01*
X546850Y317317D01*
X546050Y316916D01*
X539358D02*
X539757Y317717D01*
X539358Y318516D01*
X540158Y318116D01*
X540957Y318516D01*
X540557Y317717D01*
X540957Y316916D01*
X540158Y317317D01*
X539358Y316916D01*
X508649Y299594D02*
X509049Y300394D01*
X508649Y301194D01*
X509449Y300794D01*
X510249Y301194D01*
X509849Y300394D01*
X510249Y299594D01*
X509449Y299994D01*
X508649Y299594D01*
X494476Y306287D02*
X494876Y307087D01*
X494476Y307887D01*
X495276Y307487D01*
X496076Y307887D01*
X495676Y307087D01*
X496076Y306287D01*
X495276Y306687D01*
X494476Y306287D01*
X490932Y294082D02*
X491332Y294882D01*
X490932Y295682D01*
X491732Y295282D01*
X492532Y295682D01*
X492132Y294882D01*
X492532Y294082D01*
X491732Y294482D01*
X490932Y294082D01*
X489358Y299594D02*
X489757Y300394D01*
X489358Y301194D01*
X490158Y300794D01*
X490957Y301194D01*
X490557Y300394D01*
X490957Y299594D01*
X490158Y299994D01*
X489358Y299594D01*
X452743Y311405D02*
X453143Y312205D01*
X452743Y313005D01*
X453543Y312605D01*
X454343Y313005D01*
X453943Y312205D01*
X454343Y311405D01*
X453543Y311805D01*
X452743Y311405D01*
X444476Y299594D02*
X444876Y300394D01*
X444476Y301194D01*
X445276Y300794D01*
X446076Y301194D01*
X445676Y300394D01*
X446076Y299594D01*
X445276Y299994D01*
X444476Y299594D01*
X466523Y357861D02*
X466923Y358661D01*
X466523Y359461D01*
X467323Y359061D01*
X468123Y359461D01*
X467723Y358661D01*
X468123Y357861D01*
X467323Y358261D01*
X466523Y357861D01*
X462192Y381484D02*
X462592Y382283D01*
X462192Y383084D01*
X462992Y382683D01*
X463792Y383084D01*
X463392Y382283D01*
X463792Y381484D01*
X462992Y381884D01*
X462192Y381484D01*
X526759Y333452D02*
X527159Y334252D01*
X526759Y335052D01*
X527559Y334652D01*
X528359Y335052D01*
X527959Y334252D01*
X528359Y333452D01*
X527559Y333852D01*
X526759Y333452D01*
X507861Y329121D02*
X508261Y329921D01*
X507861Y330721D01*
X508661Y330321D01*
X509461Y330721D01*
X509061Y329921D01*
X509461Y329121D01*
X508661Y329521D01*
X507861Y329121D01*
X500381Y318098D02*
X500781Y318898D01*
X500381Y319698D01*
X501181Y319298D01*
X501981Y319698D01*
X501581Y318898D01*
X501981Y318098D01*
X501181Y318498D01*
X500381Y318098D01*
X518885Y375578D02*
X519285Y376378D01*
X518885Y377178D01*
X519685Y376778D01*
X520485Y377178D01*
X520085Y376378D01*
X520485Y375578D01*
X519685Y375978D01*
X518885Y375578D01*
X537783Y350381D02*
X538183Y351181D01*
X537783Y351981D01*
X538583Y351581D01*
X539383Y351981D01*
X538983Y351181D01*
X539383Y350381D01*
X538583Y350781D01*
X537783Y350381D01*
X541326Y240539D02*
X541726Y241339D01*
X541326Y242139D01*
X542126Y241739D01*
X542926Y242139D01*
X542526Y241339D01*
X542926Y240539D01*
X542126Y240939D01*
X541326Y240539D01*
X553531Y261405D02*
X553931Y262205D01*
X553531Y263005D01*
X554331Y262605D01*
X555131Y263005D01*
X554731Y262205D01*
X555131Y261405D01*
X554331Y261805D01*
X553531Y261405D01*
X553924Y290539D02*
X554324Y291339D01*
X553924Y292139D01*
X554724Y291739D01*
X555524Y292139D01*
X555124Y291339D01*
X555524Y290539D01*
X554724Y290939D01*
X553924Y290539D01*
X531484Y286208D02*
X531883Y287008D01*
X531484Y287808D01*
X532283Y287408D01*
X533083Y287808D01*
X532684Y287008D01*
X533083Y286208D01*
X532283Y286608D01*
X531484Y286208D01*
X529121Y236602D02*
X529521Y237402D01*
X529121Y238202D01*
X529921Y237802D01*
X530721Y238202D01*
X530321Y237402D01*
X530721Y236602D01*
X529921Y237002D01*
X529121Y236602D01*
X519279Y264948D02*
X519679Y265748D01*
X519279Y266548D01*
X520079Y266148D01*
X520879Y266548D01*
X520479Y265748D01*
X520879Y264948D01*
X520079Y265348D01*
X519279Y264948D01*
X494476Y243295D02*
X494876Y244094D01*
X494476Y244895D01*
X495276Y244495D01*
X496076Y244895D01*
X495676Y244094D01*
X496076Y243295D01*
X495276Y243694D01*
X494476Y243295D01*
X422035Y228728D02*
X422435Y229528D01*
X422035Y230328D01*
X422835Y229928D01*
X423635Y230328D01*
X423235Y229528D01*
X423635Y228728D01*
X422835Y229128D01*
X422035Y228728D01*
X431877Y222428D02*
X432277Y223228D01*
X431877Y224028D01*
X432677Y223628D01*
X433477Y224028D01*
X433077Y223228D01*
X433477Y222428D01*
X432677Y222828D01*
X431877Y222428D01*
Y228728D02*
X432277Y229528D01*
X431877Y230328D01*
X432677Y229928D01*
X433477Y230328D01*
X433077Y229528D01*
X433477Y228728D01*
X432677Y229128D01*
X431877Y228728D01*
X440932Y222428D02*
X441332Y223228D01*
X440932Y224028D01*
X441732Y223628D01*
X442532Y224028D01*
X442132Y223228D01*
X442532Y222428D01*
X441732Y222828D01*
X440932Y222428D01*
Y228728D02*
X441332Y229528D01*
X440932Y230328D01*
X441732Y229928D01*
X442532Y230328D01*
X442132Y229528D01*
X442532Y228728D01*
X441732Y229128D01*
X440932Y228728D01*
X412586Y234633D02*
X412986Y235433D01*
X412586Y236233D01*
X413386Y235833D01*
X414186Y236233D01*
X413786Y235433D01*
X414186Y234633D01*
X413386Y235033D01*
X412586Y234633D01*
X422035D02*
X422435Y235433D01*
X422035Y236233D01*
X422835Y235833D01*
X423635Y236233D01*
X423235Y235433D01*
X423635Y234633D01*
X422835Y235033D01*
X422035Y234633D01*
X431877D02*
X432277Y235433D01*
X431877Y236233D01*
X432677Y235833D01*
X433477Y236233D01*
X433077Y235433D01*
X433477Y234633D01*
X432677Y235033D01*
X431877Y234633D01*
X440932D02*
X441332Y235433D01*
X440932Y236233D01*
X441732Y235833D01*
X442532Y236233D01*
X442132Y235433D01*
X442532Y234633D01*
X441732Y235033D01*
X440932Y234633D01*
X522822Y289357D02*
X523222Y290158D01*
X522822Y290957D01*
X523622Y290558D01*
X524422Y290957D01*
X524022Y290158D01*
X524422Y289357D01*
X523622Y289757D01*
X522822Y289357D01*
X412986Y335033D02*
Y334633D01*
X413786D01*
Y335033D01*
X414186D01*
Y335833D01*
X413786D01*
Y336233D01*
X412986D01*
Y335833D01*
X412586D01*
Y335033D01*
X412986D01*
X468104Y328734D02*
Y328334D01*
X468904D01*
Y328734D01*
X469304D01*
Y329534D01*
X468904D01*
Y329934D01*
X468104D01*
Y329534D01*
X467704D01*
Y328734D01*
X468104D01*
X462198Y351962D02*
Y351562D01*
X462998D01*
Y351962D01*
X463398D01*
Y352762D01*
X462998D01*
Y353162D01*
X462198D01*
Y352762D01*
X461798D01*
Y351962D01*
X462198D01*
X524790Y318885D02*
X525190Y319685D01*
X524790Y320485D01*
X525591Y320085D01*
X526391Y320485D01*
X525990Y319685D01*
X526391Y318885D01*
X525591Y319285D01*
X524790Y318885D01*
X515342Y309436D02*
X515742Y310236D01*
X515342Y311036D01*
X516142Y310636D01*
X516942Y311036D01*
X516542Y310236D01*
X516942Y309436D01*
X516142Y309836D01*
X515342Y309436D01*
X489358Y286995D02*
X489757Y287795D01*
X489358Y288595D01*
X490158Y288195D01*
X490957Y288595D01*
X490557Y287795D01*
X490957Y286995D01*
X490158Y287395D01*
X489358Y286995D01*
X516135Y280309D02*
Y279909D01*
X516935D01*
Y280309D01*
X517335D01*
Y281109D01*
X516935D01*
Y281509D01*
X516135D01*
Y281109D01*
X515735D01*
Y280309D01*
X516135D01*
X514954Y259049D02*
Y258649D01*
X515754D01*
Y259049D01*
X516154D01*
Y259849D01*
X515754D01*
Y260249D01*
X514954D01*
Y259849D01*
X514554D01*
Y259049D01*
X514954D01*
X488964Y264554D02*
X489364Y265354D01*
X488964Y266154D01*
X489764Y265754D01*
X490564Y266154D01*
X490164Y265354D01*
X490564Y264554D01*
X489764Y264954D01*
X488964Y264554D01*
X471641Y265342D02*
X472041Y266142D01*
X471641Y266942D01*
X472441Y266542D01*
X473241Y266942D01*
X472841Y266142D01*
X473241Y265342D01*
X472441Y265742D01*
X471641Y265342D01*
X465342Y270066D02*
X465742Y270866D01*
X465342Y271666D01*
X466142Y271266D01*
X466942Y271666D01*
X466542Y270866D01*
X466942Y270066D01*
X466142Y270466D01*
X465342Y270066D01*
X444869Y315342D02*
X445269Y316142D01*
X444869Y316942D01*
X445669Y316542D01*
X446469Y316942D01*
X446069Y316142D01*
X446469Y315342D01*
X445669Y315742D01*
X444869Y315342D01*
X523609Y268491D02*
X524010Y269291D01*
X523609Y270091D01*
X524409Y269691D01*
X525210Y270091D01*
X524810Y269291D01*
X525210Y268491D01*
X524409Y268891D01*
X523609Y268491D01*
X519279Y274397D02*
X519679Y275197D01*
X519279Y275997D01*
X520079Y275597D01*
X520879Y275997D01*
X520479Y275197D01*
X520879Y274397D01*
X520079Y274797D01*
X519279Y274397D01*
X479121Y264554D02*
X479521Y265354D01*
X479121Y266154D01*
X479921Y265754D01*
X480721Y266154D01*
X480321Y265354D01*
X480721Y264554D01*
X479921Y264954D01*
X479121Y264554D01*
D66*
X402769Y385827D02*
G03*
X402769Y385827I-800J0D01*
G01*
Y225197D02*
G03*
X402769Y225197I-800J0D01*
G01*
X562808Y225394D02*
G03*
X562808Y225394I-800J0D01*
G01*
M02*
