G04*
G04 #@! TF.GenerationSoftware,Altium Limited,Altium Designer,21.6.1 (37)*
G04*
G04 Layer_Color=8388736*
%FSLAX25Y25*%
%MOIN*%
G70*
G04*
G04 #@! TF.SameCoordinates,5AA223CE-A3B5-4ABD-9865-E1F73ECA8A72*
G04*
G04*
G04 #@! TF.FilePolarity,Negative*
G04*
G01*
G75*
%ADD17R,0.02756X0.06299*%
%ADD18R,0.04724X0.05512*%
%ADD19R,0.04724X0.08661*%
%ADD20R,0.06299X0.05512*%
%ADD35R,0.07480X0.04331*%
%ADD36R,0.04921X0.07480*%
%ADD37R,0.07480X0.04724*%
%ADD38R,0.05236X0.07480*%
%ADD39R,0.25210X0.20091*%
%ADD40R,0.08819X0.04291*%
%ADD41R,0.07480X0.04921*%
%ADD42R,0.03543X0.01378*%
%ADD43R,0.01378X0.03543*%
%ADD44R,0.11221X0.10827*%
%ADD45R,0.05512X0.04724*%
%ADD46R,0.04331X0.07480*%
%ADD47R,0.01772X0.02362*%
%ADD48R,0.06102X0.01575*%
%ADD49R,0.01575X0.06102*%
%ADD50C,0.08674*%
%ADD51C,0.06800*%
%ADD52C,0.07493*%
%ADD53R,0.07493X0.07493*%
%ADD54R,0.07493X0.07493*%
%ADD55C,0.03162*%
%ADD56C,0.03950*%
D17*
X436811Y301378D02*
D03*
X432480D02*
D03*
X428150D02*
D03*
X423819D02*
D03*
X419488D02*
D03*
X415158D02*
D03*
X410827D02*
D03*
X406496D02*
D03*
X402165D02*
D03*
D18*
X397441Y299016D02*
D03*
D19*
Y261614D02*
D03*
X458465Y261614D02*
D03*
D20*
X454921Y299410D02*
D03*
D35*
X545669Y287402D02*
D03*
Y275591D02*
D03*
X551968Y267717D02*
D03*
Y255906D02*
D03*
X422048Y323622D02*
D03*
Y335433D02*
D03*
X412205Y315748D02*
D03*
Y327559D02*
D03*
D36*
X440157Y313386D02*
D03*
X428346D02*
D03*
X525197Y277559D02*
D03*
X537008D02*
D03*
X548228Y246063D02*
D03*
X536417D02*
D03*
X548031Y236220D02*
D03*
X536220D02*
D03*
X517717Y246063D02*
D03*
X529528D02*
D03*
X514567Y327166D02*
D03*
X526378D02*
D03*
X465355Y320866D02*
D03*
X477166D02*
D03*
X464961Y277559D02*
D03*
X476772D02*
D03*
X501181Y258661D02*
D03*
X489370D02*
D03*
X475197Y249213D02*
D03*
X487008D02*
D03*
X513779Y268110D02*
D03*
X501968D02*
D03*
X464961Y287008D02*
D03*
X476772D02*
D03*
X477165Y311023D02*
D03*
X465354D02*
D03*
D37*
X456299Y321260D02*
D03*
X431890D02*
D03*
Y335827D02*
D03*
X456299D02*
D03*
D38*
X533071Y377166D02*
D03*
D03*
Y387480D02*
D03*
X532283Y364960D02*
D03*
D03*
Y354645D02*
D03*
D39*
X495331Y378346D02*
D03*
Y348425D02*
D03*
D40*
X521654Y387323D02*
D03*
Y369370D02*
D03*
Y357402D02*
D03*
Y339449D02*
D03*
D41*
X475197Y381890D02*
D03*
Y370079D02*
D03*
X531890Y301969D02*
D03*
Y313780D02*
D03*
X477559Y355512D02*
D03*
Y343701D02*
D03*
D42*
X528740Y266732D02*
D03*
Y264764D02*
D03*
Y262795D02*
D03*
Y260827D02*
D03*
Y258858D02*
D03*
Y256890D02*
D03*
X544095D02*
D03*
Y258858D02*
D03*
Y260827D02*
D03*
Y262795D02*
D03*
Y264764D02*
D03*
Y266732D02*
D03*
D43*
X531496Y254134D02*
D03*
X533465D02*
D03*
X535433D02*
D03*
X537402D02*
D03*
X539370D02*
D03*
X541339D02*
D03*
Y269488D02*
D03*
X539370D02*
D03*
X537402D02*
D03*
X535433D02*
D03*
X533465D02*
D03*
X531496D02*
D03*
D44*
X536417Y261811D02*
D03*
D45*
X466546Y302751D02*
D03*
X475601D02*
D03*
X466607Y295242D02*
D03*
X475619Y295306D02*
D03*
D46*
X483858Y322047D02*
D03*
X495669D02*
D03*
D47*
X481496Y255906D02*
D03*
X478937D02*
D03*
X473819D02*
D03*
X481496Y262205D02*
D03*
X478937D02*
D03*
X476378D02*
D03*
Y255906D02*
D03*
X473819Y262205D02*
D03*
D48*
X484350Y307087D02*
D03*
Y305118D02*
D03*
Y303150D02*
D03*
Y301181D02*
D03*
Y299213D02*
D03*
Y297244D02*
D03*
Y295276D02*
D03*
Y293307D02*
D03*
Y291339D02*
D03*
Y289370D02*
D03*
Y287402D02*
D03*
X517618Y307087D02*
D03*
Y305118D02*
D03*
Y303150D02*
D03*
Y301181D02*
D03*
Y299213D02*
D03*
Y297244D02*
D03*
Y295276D02*
D03*
Y293307D02*
D03*
Y291339D02*
D03*
Y289370D02*
D03*
Y287402D02*
D03*
Y285433D02*
D03*
X484350D02*
D03*
D49*
X492126Y279626D02*
D03*
X494095D02*
D03*
X496063D02*
D03*
X498032D02*
D03*
X500000D02*
D03*
X501968D02*
D03*
X503937D02*
D03*
X505905D02*
D03*
X507874D02*
D03*
X509842D02*
D03*
X511811D02*
D03*
X509842Y312894D02*
D03*
X507874D02*
D03*
X505905D02*
D03*
X503937D02*
D03*
X501968D02*
D03*
X500000D02*
D03*
X498032D02*
D03*
X496063D02*
D03*
X494095D02*
D03*
X492126D02*
D03*
X490158D02*
D03*
Y279626D02*
D03*
X511811Y312894D02*
D03*
D50*
X555709Y383465D02*
D03*
Y369685D02*
D03*
X555512Y348031D02*
D03*
Y334252D02*
D03*
D51*
X401968Y385827D02*
D03*
Y225197D02*
D03*
X562008Y225394D02*
D03*
D52*
X469764Y233071D02*
D03*
X479764D02*
D03*
X489764D02*
D03*
X400787Y347008D02*
D03*
Y337008D02*
D03*
Y327008D02*
D03*
Y317008D02*
D03*
X448819Y368504D02*
D03*
X418898D02*
D03*
X562417Y309536D02*
D03*
Y299536D02*
D03*
Y289536D02*
D03*
X562515Y255748D02*
D03*
Y265748D02*
D03*
D53*
X499772Y233056D02*
D03*
D54*
X400802Y357016D02*
D03*
X562402Y279528D02*
D03*
X562500Y245739D02*
D03*
D55*
X552756Y303937D02*
D03*
X546850D02*
D03*
Y311024D02*
D03*
X540158D02*
D03*
X552756Y317717D02*
D03*
X546850D02*
D03*
X540158D02*
D03*
X509449Y300394D02*
D03*
X495276Y307087D02*
D03*
X491732Y294882D02*
D03*
X490158Y300394D02*
D03*
X453543Y312205D02*
D03*
X445276Y300394D02*
D03*
X467323Y358661D02*
D03*
X462992Y382283D02*
D03*
X527559Y334252D02*
D03*
X508661Y329921D02*
D03*
X501181Y318898D02*
D03*
X519685Y376378D02*
D03*
X538583Y351181D02*
D03*
X542126Y241339D02*
D03*
X554331Y262205D02*
D03*
X554724Y291339D02*
D03*
X532283Y287008D02*
D03*
X529921Y237402D02*
D03*
X520079Y265748D02*
D03*
X495276Y244094D02*
D03*
X422835Y229528D02*
D03*
X432677Y223228D02*
D03*
Y229528D02*
D03*
X441732Y223228D02*
D03*
Y229528D02*
D03*
X413386Y235433D02*
D03*
X422835D02*
D03*
X432677D02*
D03*
X441732D02*
D03*
X523622Y290158D02*
D03*
X525591Y319685D02*
D03*
X516142Y310236D02*
D03*
X490158Y287795D02*
D03*
X489764Y265354D02*
D03*
X472441Y266142D02*
D03*
X466142Y270866D02*
D03*
X445669Y316142D02*
D03*
X524409Y269291D02*
D03*
X520079Y275197D02*
D03*
X479921Y265354D02*
D03*
D56*
X413386Y335433D02*
D03*
X468504Y329134D02*
D03*
X462598Y352362D02*
D03*
X516535Y280709D02*
D03*
X515354Y259449D02*
D03*
M02*
