G04*
G04 #@! TF.GenerationSoftware,Altium Limited,Altium Designer,21.6.1 (37)*
G04*
G04 Layer_Physical_Order=2*
G04 Layer_Color=16711680*
%FSLAX25Y25*%
%MOIN*%
G70*
G04*
G04 #@! TF.SameCoordinates,5AA223CE-A3B5-4ABD-9865-E1F73ECA8A72*
G04*
G04*
G04 #@! TF.FilePolarity,Positive*
G04*
G01*
G75*
%ADD11C,0.01000*%
%ADD57C,0.03150*%
%ADD58C,0.07874*%
%ADD59C,0.06000*%
%ADD60C,0.06693*%
%ADD61R,0.06693X0.06693*%
%ADD62R,0.06693X0.06693*%
%ADD63C,0.02362*%
%ADD64C,0.03150*%
G36*
X570866Y316491D02*
X570436Y316280D01*
X570168Y316484D01*
Y321811D01*
X570000Y322659D01*
X569519Y323378D01*
X559877Y333020D01*
X560047Y333655D01*
Y334849D01*
X559738Y336003D01*
X559141Y337037D01*
X558297Y337881D01*
X557262Y338478D01*
X556109Y338787D01*
X554915D01*
X553761Y338478D01*
X552727Y337881D01*
X551883Y337037D01*
X551286Y336003D01*
X550976Y334849D01*
Y333655D01*
X551286Y332501D01*
X551883Y331467D01*
X552727Y330623D01*
X553761Y330026D01*
X554915Y329716D01*
X556109D01*
X556744Y329887D01*
X565737Y320893D01*
Y315631D01*
X565905Y314783D01*
X566122Y314459D01*
Y312008D01*
X565622Y311874D01*
X565573Y311958D01*
X564839Y312693D01*
X563939Y313212D01*
X562936Y313481D01*
X561897D01*
X560894Y313212D01*
X559994Y312693D01*
X559260Y311958D01*
X558741Y311059D01*
X558472Y310055D01*
Y309017D01*
X558741Y308014D01*
X559260Y307114D01*
X559994Y306380D01*
X560894Y305860D01*
X561897Y305591D01*
X562936D01*
X563939Y305860D01*
X564839Y306380D01*
X565573Y307114D01*
X565622Y307198D01*
X566122Y307065D01*
Y302008D01*
X565622Y301874D01*
X565573Y301958D01*
X564839Y302693D01*
X563939Y303212D01*
X562936Y303481D01*
X561897D01*
X560894Y303212D01*
X559994Y302693D01*
X559260Y301958D01*
X558741Y301059D01*
X558472Y300056D01*
Y299017D01*
X558741Y298013D01*
X559260Y297114D01*
X559994Y296379D01*
X560894Y295860D01*
X561897Y295591D01*
X562936D01*
X563939Y295860D01*
X564839Y296379D01*
X565573Y297114D01*
X565622Y297198D01*
X566122Y297064D01*
Y292685D01*
X565622Y292478D01*
X565085Y293014D01*
X564094Y293586D01*
X562989Y293883D01*
X562917D01*
Y289536D01*
Y285190D01*
X562989D01*
X564094Y285486D01*
X565085Y286058D01*
X565200Y286173D01*
X565743Y286008D01*
X565744Y286003D01*
X563213Y283472D01*
X558457D01*
Y275583D01*
X563213D01*
X566221Y272575D01*
Y268897D01*
X565721Y268689D01*
X565184Y269226D01*
X564193Y269798D01*
X563087Y270094D01*
X563015D01*
Y265748D01*
Y261402D01*
X563087D01*
X564193Y261698D01*
X565184Y262270D01*
X565302Y262388D01*
X565844Y262224D01*
X565847Y262213D01*
X563265Y259631D01*
X563034Y259693D01*
X561996D01*
X560992Y259424D01*
X560093Y258905D01*
X559358Y258170D01*
X558839Y257271D01*
X558570Y256267D01*
Y255229D01*
X558839Y254225D01*
X559358Y253326D01*
X560093Y252591D01*
X560992Y252072D01*
X561996Y251803D01*
X563034D01*
X564038Y252072D01*
X564937Y252591D01*
X565672Y253326D01*
X566191Y254225D01*
X566460Y255229D01*
Y256267D01*
X566398Y256498D01*
X570003Y260103D01*
X570366Y260646D01*
X570866Y260494D01*
Y216535D01*
X393701D01*
Y393701D01*
X570866D01*
Y316491D01*
D02*
G37*
G36*
Y284356D02*
Y274668D01*
X570366Y274516D01*
X570003Y275060D01*
X566347Y278716D01*
Y280339D01*
X569905Y283897D01*
X570366Y284588D01*
X570403Y284594D01*
X570866Y284356D01*
D02*
G37*
%LPC*%
G36*
X556359Y388402D02*
X556209D01*
Y383965D01*
X560646D01*
Y384115D01*
X560309Y385370D01*
X559659Y386496D01*
X558740Y387415D01*
X557614Y388065D01*
X556359Y388402D01*
D02*
G37*
G36*
X555209D02*
X555059D01*
X553803Y388065D01*
X552677Y387415D01*
X551758Y386496D01*
X551108Y385370D01*
X550772Y384115D01*
Y383965D01*
X555209D01*
Y388402D01*
D02*
G37*
G36*
X463492Y384437D02*
Y382784D01*
X465146D01*
X464841Y383519D01*
X464228Y384133D01*
X463492Y384437D01*
D02*
G37*
G36*
X462492D02*
X461757Y384133D01*
X461143Y383519D01*
X460838Y382784D01*
X462492D01*
Y384437D01*
D02*
G37*
G36*
X465146Y381784D02*
X463492D01*
Y380130D01*
X464228Y380434D01*
X464841Y381048D01*
X465146Y381784D01*
D02*
G37*
G36*
X462492D02*
X460838D01*
X461143Y381048D01*
X461757Y380434D01*
X462492Y380130D01*
Y381784D01*
D02*
G37*
G36*
X402649Y392732D02*
X401288D01*
X399954Y392467D01*
X398697Y391946D01*
X397567Y391191D01*
X396605Y390229D01*
X395849Y389098D01*
X395328Y387841D01*
X395063Y386507D01*
Y385147D01*
X395328Y383812D01*
X395849Y382556D01*
X396605Y381425D01*
X397567Y380463D01*
X398697Y379707D01*
X399954Y379187D01*
X401288Y378921D01*
X402649D01*
X403983Y379187D01*
X405239Y379707D01*
X406370Y380463D01*
X407332Y381425D01*
X408088Y382556D01*
X408609Y383812D01*
X408874Y385147D01*
Y386507D01*
X408609Y387841D01*
X408088Y389098D01*
X407332Y390229D01*
X406370Y391191D01*
X405239Y391946D01*
X403983Y392467D01*
X402649Y392732D01*
D02*
G37*
G36*
X560646Y382965D02*
X556209D01*
Y378528D01*
X556359D01*
X557614Y378864D01*
X558740Y379514D01*
X559659Y380433D01*
X560309Y381559D01*
X560646Y382815D01*
Y382965D01*
D02*
G37*
G36*
X555209D02*
X550772D01*
Y382815D01*
X551108Y381559D01*
X551758Y380433D01*
X552677Y379514D01*
X553803Y378864D01*
X555059Y378528D01*
X555209D01*
Y382965D01*
D02*
G37*
G36*
X520185Y378532D02*
Y376878D01*
X521839D01*
X521534Y377613D01*
X520921Y378227D01*
X520185Y378532D01*
D02*
G37*
G36*
X519185D02*
X518449Y378227D01*
X517836Y377613D01*
X517531Y376878D01*
X519185D01*
Y378532D01*
D02*
G37*
G36*
X521839Y375878D02*
X520185D01*
Y374224D01*
X520921Y374529D01*
X521534Y375143D01*
X521839Y375878D01*
D02*
G37*
G36*
X519185D02*
X517531D01*
X517836Y375143D01*
X518449Y374529D01*
X519185Y374224D01*
Y375878D01*
D02*
G37*
G36*
X449391Y372850D02*
X449319D01*
Y369004D01*
X453165D01*
Y369076D01*
X452869Y370182D01*
X452297Y371173D01*
X451488Y371982D01*
X450497Y372554D01*
X449391Y372850D01*
D02*
G37*
G36*
X448319D02*
X448247D01*
X447141Y372554D01*
X446150Y371982D01*
X445341Y371173D01*
X444769Y370182D01*
X444473Y369076D01*
Y369004D01*
X448319D01*
Y372850D01*
D02*
G37*
G36*
X556306Y374220D02*
X555112D01*
X553958Y373911D01*
X552924Y373314D01*
X552079Y372470D01*
X551482Y371436D01*
X551173Y370282D01*
Y369088D01*
X551482Y367934D01*
X552079Y366900D01*
X552924Y366056D01*
X553958Y365459D01*
X555112Y365150D01*
X556306D01*
X557459Y365459D01*
X558494Y366056D01*
X559338Y366900D01*
X559935Y367934D01*
X560244Y369088D01*
Y370282D01*
X559935Y371436D01*
X559338Y372470D01*
X558494Y373314D01*
X557459Y373911D01*
X556306Y374220D01*
D02*
G37*
G36*
X419417Y372449D02*
X418378D01*
X417375Y372180D01*
X416475Y371661D01*
X415741Y370926D01*
X415222Y370027D01*
X414953Y369023D01*
Y367985D01*
X415222Y366981D01*
X415741Y366082D01*
X416475Y365347D01*
X417375Y364828D01*
X418378Y364559D01*
X419417D01*
X420420Y364828D01*
X421320Y365347D01*
X422054Y366082D01*
X422574Y366981D01*
X422843Y367985D01*
Y369023D01*
X422574Y370027D01*
X422054Y370926D01*
X421320Y371661D01*
X420420Y372180D01*
X419417Y372449D01*
D02*
G37*
G36*
X453165Y368004D02*
X449319D01*
Y364158D01*
X449391D01*
X450497Y364454D01*
X451488Y365026D01*
X452297Y365835D01*
X452869Y366826D01*
X453165Y367932D01*
Y368004D01*
D02*
G37*
G36*
X448319D02*
X444473D01*
Y367932D01*
X444769Y366826D01*
X445341Y365835D01*
X446150Y365026D01*
X447141Y364454D01*
X448247Y364158D01*
X448319D01*
Y368004D01*
D02*
G37*
G36*
X467823Y360815D02*
Y359161D01*
X469477D01*
X469172Y359897D01*
X468558Y360510D01*
X467823Y360815D01*
D02*
G37*
G36*
X466823D02*
X466087Y360510D01*
X465474Y359897D01*
X465169Y359161D01*
X466823D01*
Y360815D01*
D02*
G37*
G36*
X469477Y358161D02*
X467823D01*
Y356508D01*
X468558Y356812D01*
X469172Y357426D01*
X469477Y358161D01*
D02*
G37*
G36*
X466823D02*
X465169D01*
X465474Y357426D01*
X466087Y356812D01*
X466823Y356508D01*
Y358161D01*
D02*
G37*
G36*
X539083Y353335D02*
Y351681D01*
X540736D01*
X540432Y352417D01*
X539818Y353030D01*
X539083Y353335D01*
D02*
G37*
G36*
X538083D02*
X537347Y353030D01*
X536734Y352417D01*
X536429Y351681D01*
X538083D01*
Y353335D01*
D02*
G37*
G36*
X540736Y350681D02*
X539083D01*
Y349027D01*
X539818Y349332D01*
X540432Y349946D01*
X540736Y350681D01*
D02*
G37*
G36*
X538083D02*
X536429D01*
X536734Y349946D01*
X537347Y349332D01*
X538083Y349027D01*
Y350681D01*
D02*
G37*
G36*
X556162Y352969D02*
X556012D01*
Y348532D01*
X560449D01*
Y348681D01*
X560112Y349937D01*
X559462Y351063D01*
X558543Y351982D01*
X557417Y352632D01*
X556162Y352969D01*
D02*
G37*
G36*
X555012D02*
X554862D01*
X553606Y352632D01*
X552480Y351982D01*
X551561Y351063D01*
X550911Y349937D01*
X550575Y348681D01*
Y348532D01*
X555012D01*
Y352969D01*
D02*
G37*
G36*
X560449Y347532D02*
X556012D01*
Y343094D01*
X556162D01*
X557417Y343431D01*
X558543Y344081D01*
X559462Y345000D01*
X560112Y346126D01*
X560449Y347381D01*
Y347532D01*
D02*
G37*
G36*
X555012D02*
X550575D01*
Y347381D01*
X550911Y346126D01*
X551561Y345000D01*
X552480Y344081D01*
X553606Y343431D01*
X554862Y343094D01*
X555012D01*
Y347532D01*
D02*
G37*
G36*
X401307Y350953D02*
X400268D01*
X399265Y350684D01*
X398365Y350165D01*
X397631Y349430D01*
X397111Y348531D01*
X396843Y347527D01*
Y346488D01*
X397111Y345485D01*
X397631Y344586D01*
X398365Y343851D01*
X399265Y343332D01*
X400268Y343063D01*
X401307D01*
X402310Y343332D01*
X403210Y343851D01*
X403944Y344586D01*
X404463Y345485D01*
X404732Y346488D01*
Y347527D01*
X404463Y348531D01*
X403944Y349430D01*
X403210Y350165D01*
X402310Y350684D01*
X401307Y350953D01*
D02*
G37*
G36*
X528059Y336406D02*
Y334752D01*
X529713D01*
X529408Y335488D01*
X528794Y336101D01*
X528059Y336406D01*
D02*
G37*
G36*
X527059D02*
X526324Y336101D01*
X525710Y335488D01*
X525405Y334752D01*
X527059D01*
Y336406D01*
D02*
G37*
G36*
X404747Y360961D02*
X396858D01*
Y353072D01*
X401614D01*
X411170Y343515D01*
Y335433D01*
X411213Y335219D01*
Y335001D01*
X411296Y334799D01*
X411339Y334585D01*
X411460Y334404D01*
X411544Y334202D01*
X411698Y334048D01*
X411819Y333866D01*
X412001Y333745D01*
X412155Y333591D01*
X412356Y333507D01*
X412538Y333386D01*
X412752Y333343D01*
X412954Y333260D01*
X413172D01*
X413386Y333217D01*
X413600Y333260D01*
X413818D01*
X414020Y333343D01*
X414234Y333386D01*
X414415Y333507D01*
X414617Y333591D01*
X414771Y333745D01*
X414953Y333866D01*
X415074Y334048D01*
X415228Y334202D01*
X415312Y334404D01*
X415433Y334585D01*
X415476Y334799D01*
X415559Y335001D01*
Y335219D01*
X415602Y335433D01*
Y344433D01*
X415433Y345281D01*
X414953Y346000D01*
X404747Y356205D01*
Y360961D01*
D02*
G37*
G36*
X401307Y340953D02*
X400268D01*
X399265Y340684D01*
X398365Y340165D01*
X397631Y339430D01*
X397111Y338530D01*
X396843Y337527D01*
Y336489D01*
X397111Y335485D01*
X397631Y334586D01*
X398365Y333851D01*
X399265Y333332D01*
X400268Y333063D01*
X401307D01*
X402310Y333332D01*
X403210Y333851D01*
X403944Y334586D01*
X404463Y335485D01*
X404732Y336489D01*
Y337527D01*
X404463Y338530D01*
X403944Y339430D01*
X403210Y340165D01*
X402310Y340684D01*
X401307Y340953D01*
D02*
G37*
G36*
X529713Y333752D02*
X528059D01*
Y332098D01*
X528794Y332403D01*
X529408Y333016D01*
X529713Y333752D01*
D02*
G37*
G36*
X527059D02*
X525405D01*
X525710Y333016D01*
X526324Y332403D01*
X527059Y332098D01*
Y333752D01*
D02*
G37*
G36*
X509161Y332075D02*
Y330421D01*
X510815D01*
X510510Y331157D01*
X509897Y331770D01*
X509161Y332075D01*
D02*
G37*
G36*
X508161D02*
X507426Y331770D01*
X506812Y331157D01*
X506508Y330421D01*
X508161D01*
Y332075D01*
D02*
G37*
G36*
X510815Y329421D02*
X509161D01*
Y327768D01*
X509897Y328072D01*
X510510Y328686D01*
X510815Y329421D01*
D02*
G37*
G36*
X508161D02*
X506508D01*
X506812Y328686D01*
X507426Y328072D01*
X508161Y327768D01*
Y329421D01*
D02*
G37*
G36*
X401360Y331354D02*
X401287D01*
Y327508D01*
X405134D01*
Y327580D01*
X404838Y328685D01*
X404265Y329677D01*
X403456Y330486D01*
X402465Y331058D01*
X401360Y331354D01*
D02*
G37*
G36*
X400287D02*
X400215D01*
X399110Y331058D01*
X398119Y330486D01*
X397309Y329677D01*
X396737Y328685D01*
X396441Y327580D01*
Y327508D01*
X400287D01*
Y331354D01*
D02*
G37*
G36*
X462598Y354578D02*
X462384Y354535D01*
X462166D01*
X461965Y354452D01*
X461751Y354409D01*
X461569Y354288D01*
X461367Y354205D01*
X461213Y354050D01*
X461032Y353929D01*
X460910Y353748D01*
X460756Y353593D01*
X460673Y353392D01*
X460551Y353210D01*
X460509Y352996D01*
X460425Y352795D01*
Y352576D01*
X460383Y352362D01*
X460425Y352148D01*
Y351930D01*
X460509Y351728D01*
X460551Y351514D01*
X460673Y351333D01*
X460756Y351131D01*
X460910Y350977D01*
X461032Y350795D01*
X463532Y348295D01*
Y330979D01*
X463701Y330131D01*
X464181Y329412D01*
X466026Y327567D01*
X466745Y327087D01*
X467593Y326918D01*
X468504D01*
X468718Y326961D01*
X468936D01*
X469138Y327044D01*
X469352Y327087D01*
X469533Y327208D01*
X469735Y327291D01*
X469889Y327446D01*
X470071Y327567D01*
X470192Y327748D01*
X470346Y327903D01*
X470430Y328104D01*
X470551Y328286D01*
X470594Y328500D01*
X470677Y328702D01*
Y328920D01*
X470720Y329134D01*
X470677Y329348D01*
Y329566D01*
X470594Y329768D01*
X470551Y329982D01*
X470430Y330163D01*
X470346Y330365D01*
X470192Y330519D01*
X470071Y330701D01*
X469889Y330822D01*
X469735Y330976D01*
X469533Y331060D01*
X469352Y331181D01*
X469138Y331224D01*
X468936Y331307D01*
X468718D01*
X468513Y331348D01*
X467964Y331897D01*
Y349213D01*
X467795Y350061D01*
X467315Y350779D01*
X464165Y353929D01*
X463984Y354050D01*
X463830Y354205D01*
X463628Y354288D01*
X463446Y354409D01*
X463232Y354452D01*
X463031Y354535D01*
X462813D01*
X462598Y354578D01*
D02*
G37*
G36*
X405134Y326508D02*
X401287D01*
Y322661D01*
X401360D01*
X402465Y322958D01*
X403456Y323530D01*
X404265Y324339D01*
X404838Y325330D01*
X405134Y326436D01*
Y326508D01*
D02*
G37*
G36*
X400287D02*
X396441D01*
Y326436D01*
X396737Y325330D01*
X397309Y324339D01*
X398119Y323530D01*
X399110Y322958D01*
X400215Y322661D01*
X400287D01*
Y326508D01*
D02*
G37*
G36*
X501681Y321051D02*
Y319398D01*
X503335D01*
X503030Y320133D01*
X502417Y320747D01*
X501681Y321051D01*
D02*
G37*
G36*
X500681D02*
X499946Y320747D01*
X499332Y320133D01*
X499027Y319398D01*
X500681D01*
Y321051D01*
D02*
G37*
G36*
X553256Y319870D02*
Y318216D01*
X554910D01*
X554605Y318952D01*
X553991Y319566D01*
X553256Y319870D01*
D02*
G37*
G36*
X552256D02*
X551520Y319566D01*
X550907Y318952D01*
X550602Y318216D01*
X552256D01*
Y319870D01*
D02*
G37*
G36*
X547350D02*
Y318216D01*
X549004D01*
X548699Y318952D01*
X548086Y319566D01*
X547350Y319870D01*
D02*
G37*
G36*
X546350D02*
X545615Y319566D01*
X545001Y318952D01*
X544697Y318216D01*
X546350D01*
Y319870D01*
D02*
G37*
G36*
X540658D02*
Y318216D01*
X542311D01*
X542006Y318952D01*
X541393Y319566D01*
X540658Y319870D01*
D02*
G37*
G36*
X539657D02*
X538922Y319566D01*
X538308Y318952D01*
X538004Y318216D01*
X539657D01*
Y319870D01*
D02*
G37*
G36*
X503335Y318398D02*
X501681D01*
Y316744D01*
X502417Y317049D01*
X503030Y317662D01*
X503335Y318398D01*
D02*
G37*
G36*
X500681D02*
X499027D01*
X499332Y317662D01*
X499946Y317049D01*
X500681Y316744D01*
Y318398D01*
D02*
G37*
G36*
X554910Y317216D02*
X553256D01*
Y315563D01*
X553991Y315867D01*
X554605Y316481D01*
X554910Y317216D01*
D02*
G37*
G36*
X552256D02*
X550602D01*
X550907Y316481D01*
X551520Y315867D01*
X552256Y315563D01*
Y317216D01*
D02*
G37*
G36*
X549004D02*
X547350D01*
Y315563D01*
X548086Y315867D01*
X548699Y316481D01*
X549004Y317216D01*
D02*
G37*
G36*
X546350D02*
X544697D01*
X545001Y316481D01*
X545615Y315867D01*
X546350Y315563D01*
Y317216D01*
D02*
G37*
G36*
X542311D02*
X540658D01*
Y315563D01*
X541393Y315867D01*
X542006Y316481D01*
X542311Y317216D01*
D02*
G37*
G36*
X539657D02*
X538004D01*
X538308Y316481D01*
X538922Y315867D01*
X539657Y315563D01*
Y317216D01*
D02*
G37*
G36*
X401307Y320953D02*
X400268D01*
X399265Y320684D01*
X398365Y320165D01*
X397631Y319430D01*
X397111Y318531D01*
X396843Y317527D01*
Y316489D01*
X397111Y315485D01*
X397631Y314586D01*
X398365Y313851D01*
X399265Y313332D01*
X400268Y313063D01*
X401307D01*
X402310Y313332D01*
X403210Y313851D01*
X403944Y314586D01*
X404463Y315485D01*
X404732Y316489D01*
Y317527D01*
X404463Y318531D01*
X403944Y319430D01*
X403210Y320165D01*
X402310Y320684D01*
X401307Y320953D01*
D02*
G37*
G36*
X454043Y314358D02*
Y312705D01*
X455697D01*
X455392Y313440D01*
X454779Y314054D01*
X454043Y314358D01*
D02*
G37*
G36*
X453043D02*
X452308Y314054D01*
X451694Y313440D01*
X451390Y312705D01*
X453043D01*
Y314358D01*
D02*
G37*
G36*
X547350Y313177D02*
Y311524D01*
X549004D01*
X548699Y312259D01*
X548086Y312873D01*
X547350Y313177D01*
D02*
G37*
G36*
X546350D02*
X545615Y312873D01*
X545001Y312259D01*
X544697Y311524D01*
X546350D01*
Y313177D01*
D02*
G37*
G36*
X540658D02*
Y311524D01*
X542311D01*
X542006Y312259D01*
X541393Y312873D01*
X540658Y313177D01*
D02*
G37*
G36*
X539657D02*
X538922Y312873D01*
X538308Y312259D01*
X538004Y311524D01*
X539657D01*
Y313177D01*
D02*
G37*
G36*
X455697Y311705D02*
X454043D01*
Y310051D01*
X454779Y310356D01*
X455392Y310969D01*
X455697Y311705D01*
D02*
G37*
G36*
X453043D02*
X451390D01*
X451694Y310969D01*
X452308Y310356D01*
X453043Y310051D01*
Y311705D01*
D02*
G37*
G36*
X549004Y310524D02*
X547350D01*
Y308870D01*
X548086Y309175D01*
X548699Y309788D01*
X549004Y310524D01*
D02*
G37*
G36*
X546350D02*
X544697D01*
X545001Y309788D01*
X545615Y309175D01*
X546350Y308870D01*
Y310524D01*
D02*
G37*
G36*
X542311D02*
X540658D01*
Y308870D01*
X541393Y309175D01*
X542006Y309788D01*
X542311Y310524D01*
D02*
G37*
G36*
X539657D02*
X538004D01*
X538308Y309788D01*
X538922Y309175D01*
X539657Y308870D01*
Y310524D01*
D02*
G37*
G36*
X525945Y321465D02*
X525237D01*
X524582Y321194D01*
X524082Y320693D01*
X523811Y320039D01*
Y319489D01*
X516337Y312016D01*
X515788D01*
X515134Y311745D01*
X514633Y311244D01*
X514362Y310590D01*
Y309882D01*
X514633Y309228D01*
X515134Y308728D01*
X515788Y308457D01*
X516496D01*
X517150Y308728D01*
X517650Y309228D01*
X517921Y309882D01*
Y310432D01*
X525395Y317905D01*
X525945D01*
X526599Y318176D01*
X527099Y318677D01*
X527370Y319331D01*
Y320039D01*
X527099Y320693D01*
X526599Y321194D01*
X525945Y321465D01*
D02*
G37*
G36*
X495776Y309240D02*
Y307587D01*
X497429D01*
X497125Y308322D01*
X496511Y308936D01*
X495776Y309240D01*
D02*
G37*
G36*
X494776D02*
X494040Y308936D01*
X493427Y308322D01*
X493122Y307587D01*
X494776D01*
Y309240D01*
D02*
G37*
G36*
X497429Y306587D02*
X495776D01*
Y304933D01*
X496511Y305238D01*
X497125Y305851D01*
X497429Y306587D01*
D02*
G37*
G36*
X494776D02*
X493122D01*
X493427Y305851D01*
X494040Y305238D01*
X494776Y304933D01*
Y306587D01*
D02*
G37*
G36*
X553256Y306091D02*
Y304437D01*
X554910D01*
X554605Y305172D01*
X553991Y305786D01*
X553256Y306091D01*
D02*
G37*
G36*
X552256D02*
X551520Y305786D01*
X550907Y305172D01*
X550602Y304437D01*
X552256D01*
Y306091D01*
D02*
G37*
G36*
X547350D02*
Y304437D01*
X549004D01*
X548699Y305172D01*
X548086Y305786D01*
X547350Y306091D01*
D02*
G37*
G36*
X546350D02*
X545615Y305786D01*
X545001Y305172D01*
X544697Y304437D01*
X546350D01*
Y306091D01*
D02*
G37*
G36*
X554910Y303437D02*
X553256D01*
Y301783D01*
X553991Y302088D01*
X554605Y302701D01*
X554910Y303437D01*
D02*
G37*
G36*
X552256D02*
X550602D01*
X550907Y302701D01*
X551520Y302088D01*
X552256Y301783D01*
Y303437D01*
D02*
G37*
G36*
X549004D02*
X547350D01*
Y301783D01*
X548086Y302088D01*
X548699Y302701D01*
X549004Y303437D01*
D02*
G37*
G36*
X546350D02*
X544697D01*
X545001Y302701D01*
X545615Y302088D01*
X546350Y301783D01*
Y303437D01*
D02*
G37*
G36*
X509949Y302547D02*
Y300894D01*
X511602D01*
X511298Y301629D01*
X510684Y302243D01*
X509949Y302547D01*
D02*
G37*
G36*
X508949D02*
X508213Y302243D01*
X507600Y301629D01*
X507295Y300894D01*
X508949D01*
Y302547D01*
D02*
G37*
G36*
X445776D02*
Y300894D01*
X447429D01*
X447125Y301629D01*
X446511Y302243D01*
X445776Y302547D01*
D02*
G37*
G36*
X444776D02*
X444040Y302243D01*
X443427Y301629D01*
X443122Y300894D01*
X444776D01*
Y302547D01*
D02*
G37*
G36*
X446023Y317921D02*
X445315D01*
X444661Y317650D01*
X444161Y317150D01*
X443890Y316496D01*
Y315788D01*
X444161Y315134D01*
X444661Y314633D01*
X445315Y314362D01*
X446023D01*
X446677Y314633D01*
X447066Y315022D01*
X473946D01*
X488378Y300589D01*
Y300040D01*
X488649Y299386D01*
X489150Y298885D01*
X489804Y298614D01*
X490511D01*
X491165Y298885D01*
X491666Y299386D01*
X491937Y300040D01*
Y300748D01*
X491666Y301402D01*
X491165Y301902D01*
X490511Y302173D01*
X489962D01*
X475201Y316934D01*
X474838Y317176D01*
X474409Y317262D01*
X447066D01*
X446677Y317650D01*
X446023Y317921D01*
D02*
G37*
G36*
X511602Y299894D02*
X509949D01*
Y298240D01*
X510684Y298545D01*
X511298Y299158D01*
X511602Y299894D01*
D02*
G37*
G36*
X508949D02*
X507295D01*
X507600Y299158D01*
X508213Y298545D01*
X508949Y298240D01*
Y299894D01*
D02*
G37*
G36*
X447429D02*
X445776D01*
Y298240D01*
X446511Y298545D01*
X447125Y299158D01*
X447429Y299894D01*
D02*
G37*
G36*
X444776D02*
X443122D01*
X443427Y299158D01*
X444040Y298545D01*
X444776Y298240D01*
Y299894D01*
D02*
G37*
G36*
X492232Y297036D02*
Y295382D01*
X493886D01*
X493581Y296117D01*
X492968Y296731D01*
X492232Y297036D01*
D02*
G37*
G36*
X491232D02*
X490497Y296731D01*
X489883Y296117D01*
X489579Y295382D01*
X491232D01*
Y297036D01*
D02*
G37*
G36*
X493886Y294382D02*
X492232D01*
Y292728D01*
X492968Y293033D01*
X493581Y293646D01*
X493886Y294382D01*
D02*
G37*
G36*
X491232D02*
X489579D01*
X489883Y293646D01*
X490497Y293033D01*
X491232Y292728D01*
Y294382D01*
D02*
G37*
G36*
X555224Y293492D02*
Y291839D01*
X556878D01*
X556573Y292574D01*
X555960Y293188D01*
X555224Y293492D01*
D02*
G37*
G36*
X554224D02*
X553489Y293188D01*
X552875Y292574D01*
X552571Y291839D01*
X554224D01*
Y293492D01*
D02*
G37*
G36*
X561917Y293883D02*
X561844D01*
X560739Y293586D01*
X559748Y293014D01*
X558939Y292205D01*
X558366Y291214D01*
X558070Y290108D01*
Y290036D01*
X561917D01*
Y293883D01*
D02*
G37*
G36*
X556878Y290839D02*
X555224D01*
Y289185D01*
X555960Y289490D01*
X556573Y290103D01*
X556878Y290839D01*
D02*
G37*
G36*
X554224D02*
X552571D01*
X552875Y290103D01*
X553489Y289490D01*
X554224Y289185D01*
Y290839D01*
D02*
G37*
G36*
X532784Y289162D02*
Y287508D01*
X534437D01*
X534132Y288243D01*
X533519Y288857D01*
X532784Y289162D01*
D02*
G37*
G36*
X531783D02*
X531048Y288857D01*
X530434Y288243D01*
X530130Y287508D01*
X531783D01*
Y289162D01*
D02*
G37*
G36*
X561917Y289036D02*
X558070D01*
Y288964D01*
X558366Y287859D01*
X558939Y286867D01*
X559748Y286058D01*
X560739Y285486D01*
X561844Y285190D01*
X561917D01*
Y289036D01*
D02*
G37*
G36*
X534437Y286508D02*
X532784D01*
Y284854D01*
X533519Y285159D01*
X534132Y285772D01*
X534437Y286508D01*
D02*
G37*
G36*
X531783D02*
X530130D01*
X530434Y285772D01*
X531048Y285159D01*
X531783Y284854D01*
Y286508D01*
D02*
G37*
G36*
X520433Y276976D02*
X519725D01*
X519071Y276706D01*
X518570Y276205D01*
X518299Y275551D01*
Y274843D01*
X518570Y274189D01*
X519071Y273688D01*
X519725Y273417D01*
X520274D01*
X521828Y271864D01*
Y271122D01*
X521913Y270693D01*
X522156Y270330D01*
X522691Y269794D01*
X522630Y269645D01*
Y268937D01*
X522901Y268283D01*
X523401Y267783D01*
X524055Y267512D01*
X524763D01*
X525418Y267783D01*
X525918Y268283D01*
X526189Y268937D01*
Y269645D01*
X525918Y270299D01*
X525418Y270800D01*
X524763Y271071D01*
X524582D01*
X524067Y271586D01*
Y272328D01*
X523982Y272757D01*
X523739Y273120D01*
X521858Y275001D01*
Y275551D01*
X521587Y276205D01*
X521087Y276706D01*
X520433Y276976D01*
D02*
G37*
G36*
X562015Y270094D02*
X561943D01*
X560837Y269798D01*
X559846Y269226D01*
X559037Y268417D01*
X558465Y267426D01*
X558169Y266320D01*
Y266248D01*
X562015D01*
Y270094D01*
D02*
G37*
G36*
X520579Y267902D02*
Y266248D01*
X522232D01*
X521928Y266984D01*
X521314Y267597D01*
X520579Y267902D01*
D02*
G37*
G36*
X522232Y265248D02*
X520579D01*
Y263594D01*
X521314Y263899D01*
X521928Y264512D01*
X522232Y265248D01*
D02*
G37*
G36*
X516535Y282925D02*
X516321Y282882D01*
X516103D01*
X515902Y282798D01*
X515688Y282756D01*
X515506Y282635D01*
X515304Y282551D01*
X515150Y282397D01*
X514969Y282276D01*
X513788Y281094D01*
X513307Y280376D01*
X513138Y279528D01*
Y259449D01*
X513181Y259235D01*
Y259016D01*
X513265Y258815D01*
X513307Y258601D01*
X513428Y258419D01*
X513512Y258218D01*
X513666Y258063D01*
X513788Y257882D01*
X513969Y257761D01*
X514123Y257606D01*
X514325Y257523D01*
X514506Y257402D01*
X514720Y257359D01*
X514922Y257276D01*
X515140D01*
X515354Y257233D01*
X515568Y257276D01*
X515787D01*
X515988Y257359D01*
X516202Y257402D01*
X516384Y257523D01*
X516585Y257606D01*
X516740Y257761D01*
X516921Y257882D01*
X517042Y258063D01*
X517197Y258218D01*
X517280Y258419D01*
X517402Y258601D01*
X517444Y258815D01*
X517528Y259016D01*
Y259235D01*
X517570Y259449D01*
Y264798D01*
X518070Y264898D01*
X518230Y264512D01*
X518843Y263899D01*
X519579Y263594D01*
Y265748D01*
Y267902D01*
X518843Y267597D01*
X518230Y266984D01*
X518070Y266598D01*
X517570Y266698D01*
Y278610D01*
X518102Y279142D01*
X518223Y279323D01*
X518378Y279478D01*
X518461Y279679D01*
X518583Y279861D01*
X518625Y280075D01*
X518709Y280276D01*
Y280495D01*
X518751Y280709D01*
X518709Y280923D01*
Y281141D01*
X518625Y281343D01*
X518583Y281557D01*
X518461Y281738D01*
X518378Y281940D01*
X518223Y282094D01*
X518102Y282276D01*
X517921Y282397D01*
X517767Y282551D01*
X517565Y282634D01*
X517383Y282756D01*
X517169Y282798D01*
X516968Y282882D01*
X516749D01*
X516535Y282925D01*
D02*
G37*
G36*
X466496Y272646D02*
X465788D01*
X465134Y272375D01*
X464633Y271874D01*
X464362Y271220D01*
Y270512D01*
X464633Y269858D01*
X465134Y269357D01*
X465788Y269087D01*
X466496D01*
X467150Y269357D01*
X467538Y269746D01*
X473946D01*
X478142Y265550D01*
Y265000D01*
X478413Y264346D01*
X478913Y263846D01*
X479567Y263575D01*
X480275D01*
X480929Y263846D01*
X481318Y264234D01*
X488367D01*
X488756Y263846D01*
X489410Y263575D01*
X490118D01*
X490772Y263846D01*
X491272Y264346D01*
X491543Y265000D01*
Y265708D01*
X491272Y266362D01*
X490772Y266863D01*
X490118Y267134D01*
X489410D01*
X488756Y266863D01*
X488367Y266474D01*
X481318D01*
X480929Y266863D01*
X480275Y267134D01*
X479726D01*
X475201Y271658D01*
X474838Y271901D01*
X474409Y271986D01*
X467538D01*
X467150Y272375D01*
X466496Y272646D01*
D02*
G37*
G36*
X554831Y264358D02*
Y262705D01*
X556484D01*
X556180Y263440D01*
X555566Y264054D01*
X554831Y264358D01*
D02*
G37*
G36*
X553831D02*
X553095Y264054D01*
X552482Y263440D01*
X552177Y262705D01*
X553831D01*
Y264358D01*
D02*
G37*
G36*
X562015Y265248D02*
X558169D01*
Y265176D01*
X558465Y264070D01*
X559037Y263079D01*
X559846Y262270D01*
X560837Y261698D01*
X561943Y261402D01*
X562015D01*
Y265248D01*
D02*
G37*
G36*
X556484Y261705D02*
X554831D01*
Y260051D01*
X555566Y260356D01*
X556180Y260969D01*
X556484Y261705D01*
D02*
G37*
G36*
X553831D02*
X552177D01*
X552482Y260969D01*
X553095Y260356D01*
X553831Y260051D01*
Y261705D01*
D02*
G37*
G36*
X440325Y262811D02*
X439596D01*
X438891Y262622D01*
X438259Y262257D01*
X437743Y261741D01*
X437378Y261109D01*
X437189Y260404D01*
Y259675D01*
X437378Y258969D01*
X437743Y258337D01*
X438259Y257821D01*
X438891Y257457D01*
X439596Y257268D01*
X440325D01*
X441031Y257457D01*
X441663Y257821D01*
X442178Y258337D01*
X442543Y258969D01*
X442732Y259675D01*
Y260404D01*
X442543Y261109D01*
X442178Y261741D01*
X441663Y262257D01*
X441031Y262622D01*
X440325Y262811D01*
D02*
G37*
G36*
X408829D02*
X408100D01*
X407395Y262622D01*
X406763Y262257D01*
X406247Y261741D01*
X405882Y261109D01*
X405693Y260404D01*
Y259675D01*
X405882Y258969D01*
X406247Y258337D01*
X406763Y257821D01*
X407395Y257457D01*
X408100Y257268D01*
X408829D01*
X409534Y257457D01*
X410166Y257821D01*
X410682Y258337D01*
X411047Y258969D01*
X411236Y259675D01*
Y260404D01*
X411047Y261109D01*
X410682Y261741D01*
X410166Y262257D01*
X409534Y262622D01*
X408829Y262811D01*
D02*
G37*
G36*
X495776Y246248D02*
Y244595D01*
X497429D01*
X497125Y245330D01*
X496511Y245943D01*
X495776Y246248D01*
D02*
G37*
G36*
X497429Y243595D02*
X495776D01*
Y241941D01*
X496511Y242245D01*
X497125Y242859D01*
X497429Y243595D01*
D02*
G37*
G36*
X490511Y289575D02*
X489804D01*
X489150Y289304D01*
X488649Y288803D01*
X488378Y288149D01*
Y287441D01*
X488649Y286787D01*
X489150Y286287D01*
X489804Y286016D01*
X490353D01*
X492581Y283788D01*
Y247472D01*
X481647Y236539D01*
X481286Y236747D01*
X480283Y237016D01*
X479244D01*
X478241Y236747D01*
X477342Y236228D01*
X476607Y235493D01*
X476088Y234594D01*
X475819Y233590D01*
Y232552D01*
X476088Y231548D01*
X476607Y230649D01*
X477342Y229914D01*
X478241Y229395D01*
X479244Y229126D01*
X480283D01*
X481286Y229395D01*
X482186Y229914D01*
X482921Y230649D01*
X483440Y231548D01*
X483709Y232552D01*
Y233590D01*
X483440Y234594D01*
X483231Y234955D01*
X492594Y244318D01*
X493094Y244111D01*
Y243661D01*
X493427Y242859D01*
X494040Y242245D01*
X494776Y241941D01*
Y244094D01*
Y246735D01*
X494768Y246745D01*
X494821Y247008D01*
Y284252D01*
X494735Y284681D01*
X494493Y285044D01*
X491937Y287600D01*
Y288149D01*
X491666Y288803D01*
X491165Y289304D01*
X490511Y289575D01*
D02*
G37*
G36*
X542626Y243492D02*
Y241839D01*
X544280D01*
X543975Y242574D01*
X543362Y243188D01*
X542626Y243492D01*
D02*
G37*
G36*
X541626D02*
X540891Y243188D01*
X540277Y242574D01*
X539972Y241839D01*
X541626D01*
Y243492D01*
D02*
G37*
G36*
X523976Y291937D02*
X523268D01*
X522614Y291666D01*
X522113Y291165D01*
X521842Y290511D01*
Y289804D01*
X522113Y289149D01*
X522614Y288649D01*
X523268Y288378D01*
X523818D01*
X527620Y284576D01*
Y259842D01*
X527705Y259414D01*
X527948Y259051D01*
X542051Y244948D01*
X542415Y244705D01*
X542843Y244619D01*
X558555D01*
Y241794D01*
X566445D01*
Y249684D01*
X558555D01*
Y246859D01*
X543307D01*
X529860Y260306D01*
Y285039D01*
X529775Y285468D01*
X529532Y285831D01*
X525402Y289962D01*
Y290511D01*
X525131Y291165D01*
X524630Y291666D01*
X523976Y291937D01*
D02*
G37*
G36*
X544280Y240839D02*
X542626D01*
Y239185D01*
X543362Y239490D01*
X543975Y240103D01*
X544280Y240839D01*
D02*
G37*
G36*
X541626D02*
X539972D01*
X540277Y240103D01*
X540891Y239490D01*
X541626Y239185D01*
Y240839D01*
D02*
G37*
G36*
X530421Y239555D02*
Y237902D01*
X532075D01*
X531770Y238637D01*
X531157Y239251D01*
X530421Y239555D01*
D02*
G37*
G36*
X529421D02*
X528686Y239251D01*
X528072Y238637D01*
X527768Y237902D01*
X529421D01*
Y239555D01*
D02*
G37*
G36*
X442232Y237587D02*
Y235933D01*
X443886D01*
X443581Y236669D01*
X442968Y237282D01*
X442232Y237587D01*
D02*
G37*
G36*
X441232D02*
X440497Y237282D01*
X439883Y236669D01*
X439579Y235933D01*
X441232D01*
Y237587D01*
D02*
G37*
G36*
X433177D02*
Y235933D01*
X434831D01*
X434526Y236669D01*
X433913Y237282D01*
X433177Y237587D01*
D02*
G37*
G36*
X432177D02*
X431442Y237282D01*
X430828Y236669D01*
X430523Y235933D01*
X432177D01*
Y237587D01*
D02*
G37*
G36*
X423335D02*
Y235933D01*
X424988D01*
X424684Y236669D01*
X424070Y237282D01*
X423335Y237587D01*
D02*
G37*
G36*
X422335D02*
X421599Y237282D01*
X420986Y236669D01*
X420681Y235933D01*
X422335D01*
Y237587D01*
D02*
G37*
G36*
X413886D02*
Y235933D01*
X415540D01*
X415235Y236669D01*
X414621Y237282D01*
X413886Y237587D01*
D02*
G37*
G36*
X412886D02*
X412150Y237282D01*
X411537Y236669D01*
X411232Y235933D01*
X412886D01*
Y237587D01*
D02*
G37*
G36*
X532075Y236902D02*
X530421D01*
Y235248D01*
X531157Y235553D01*
X531770Y236166D01*
X532075Y236902D01*
D02*
G37*
G36*
X529421D02*
X527768D01*
X528072Y236166D01*
X528686Y235553D01*
X529421Y235248D01*
Y236902D01*
D02*
G37*
G36*
X490336Y237417D02*
X490264D01*
Y233571D01*
X494110D01*
Y233643D01*
X493814Y234749D01*
X493242Y235740D01*
X492433Y236549D01*
X491441Y237121D01*
X490336Y237417D01*
D02*
G37*
G36*
X489264D02*
X489192D01*
X488086Y237121D01*
X487095Y236549D01*
X486286Y235740D01*
X485713Y234749D01*
X485417Y233643D01*
Y233571D01*
X489264D01*
Y237417D01*
D02*
G37*
G36*
X443886Y234933D02*
X442232D01*
Y233279D01*
X442968Y233584D01*
X443581Y234198D01*
X443886Y234933D01*
D02*
G37*
G36*
X441232D02*
X439579D01*
X439883Y234198D01*
X440497Y233584D01*
X441232Y233279D01*
Y234933D01*
D02*
G37*
G36*
X434831D02*
X433177D01*
Y233279D01*
X433913Y233584D01*
X434526Y234198D01*
X434831Y234933D01*
D02*
G37*
G36*
X432177D02*
X430523D01*
X430828Y234198D01*
X431442Y233584D01*
X432177Y233279D01*
Y234933D01*
D02*
G37*
G36*
X424988D02*
X423335D01*
Y233279D01*
X424070Y233584D01*
X424684Y234198D01*
X424988Y234933D01*
D02*
G37*
G36*
X422335D02*
X420681D01*
X420986Y234198D01*
X421599Y233584D01*
X422335Y233279D01*
Y234933D01*
D02*
G37*
G36*
X415540D02*
X413886D01*
Y233279D01*
X414621Y233584D01*
X415235Y234198D01*
X415540Y234933D01*
D02*
G37*
G36*
X412886D02*
X411232D01*
X411537Y234198D01*
X412150Y233584D01*
X412886Y233279D01*
Y234933D01*
D02*
G37*
G36*
X442232Y231681D02*
Y230028D01*
X443886D01*
X443581Y230763D01*
X442968Y231377D01*
X442232Y231681D01*
D02*
G37*
G36*
X441232D02*
X440497Y231377D01*
X439883Y230763D01*
X439579Y230028D01*
X441232D01*
Y231681D01*
D02*
G37*
G36*
X433177D02*
Y230028D01*
X434831D01*
X434526Y230763D01*
X433913Y231377D01*
X433177Y231681D01*
D02*
G37*
G36*
X432177D02*
X431442Y231377D01*
X430828Y230763D01*
X430523Y230028D01*
X432177D01*
Y231681D01*
D02*
G37*
G36*
X423335D02*
Y230028D01*
X424988D01*
X424684Y230763D01*
X424070Y231377D01*
X423335Y231681D01*
D02*
G37*
G36*
X422335D02*
X421599Y231377D01*
X420986Y230763D01*
X420681Y230028D01*
X422335D01*
Y231681D01*
D02*
G37*
G36*
X472795Y267921D02*
X472087D01*
X471433Y267650D01*
X470932Y267150D01*
X470661Y266496D01*
Y265788D01*
X470723Y265639D01*
X469881Y264797D01*
X469638Y264434D01*
X469553Y264005D01*
Y237016D01*
X469244D01*
X468241Y236747D01*
X467342Y236228D01*
X466607Y235493D01*
X466088Y234594D01*
X465819Y233590D01*
Y232552D01*
X466088Y231548D01*
X466607Y230649D01*
X467342Y229914D01*
X468241Y229395D01*
X469244Y229126D01*
X470283D01*
X471286Y229395D01*
X472186Y229914D01*
X472921Y230649D01*
X473440Y231548D01*
X473709Y232552D01*
Y233590D01*
X473440Y234594D01*
X472921Y235493D01*
X472186Y236228D01*
X471793Y236454D01*
Y263542D01*
X472614Y264362D01*
X472795D01*
X473449Y264633D01*
X473949Y265134D01*
X474221Y265788D01*
Y266496D01*
X473949Y267150D01*
X473449Y267650D01*
X472795Y267921D01*
D02*
G37*
G36*
X503717Y237001D02*
X495827D01*
Y229111D01*
X503717D01*
Y237001D01*
D02*
G37*
G36*
X494110Y232571D02*
X490264D01*
Y228724D01*
X490336D01*
X491441Y229021D01*
X492433Y229593D01*
X493242Y230402D01*
X493814Y231393D01*
X494110Y232499D01*
Y232571D01*
D02*
G37*
G36*
X489264D02*
X485417D01*
Y232499D01*
X485713Y231393D01*
X486286Y230402D01*
X487095Y229593D01*
X488086Y229021D01*
X489192Y228724D01*
X489264D01*
Y232571D01*
D02*
G37*
G36*
X443886Y229028D02*
X442232D01*
Y227374D01*
X442968Y227678D01*
X443581Y228292D01*
X443886Y229028D01*
D02*
G37*
G36*
X441232D02*
X439579D01*
X439883Y228292D01*
X440497Y227678D01*
X441232Y227374D01*
Y229028D01*
D02*
G37*
G36*
X434831D02*
X433177D01*
Y227374D01*
X433913Y227678D01*
X434526Y228292D01*
X434831Y229028D01*
D02*
G37*
G36*
X432177D02*
X430523D01*
X430828Y228292D01*
X431442Y227678D01*
X432177Y227374D01*
Y229028D01*
D02*
G37*
G36*
X424988D02*
X423335D01*
Y227374D01*
X424070Y227678D01*
X424684Y228292D01*
X424988Y229028D01*
D02*
G37*
G36*
X422335D02*
X420681D01*
X420986Y228292D01*
X421599Y227678D01*
X422335Y227374D01*
Y229028D01*
D02*
G37*
G36*
X442232Y225382D02*
Y223728D01*
X443886D01*
X443581Y224464D01*
X442968Y225077D01*
X442232Y225382D01*
D02*
G37*
G36*
X441232D02*
X440497Y225077D01*
X439883Y224464D01*
X439579Y223728D01*
X441232D01*
Y225382D01*
D02*
G37*
G36*
X433177D02*
Y223728D01*
X434831D01*
X434526Y224464D01*
X433913Y225077D01*
X433177Y225382D01*
D02*
G37*
G36*
X432177D02*
X431442Y225077D01*
X430828Y224464D01*
X430523Y223728D01*
X432177D01*
Y225382D01*
D02*
G37*
G36*
X443886Y222728D02*
X442232D01*
Y221075D01*
X442968Y221379D01*
X443581Y221993D01*
X443886Y222728D01*
D02*
G37*
G36*
X441232D02*
X439579D01*
X439883Y221993D01*
X440497Y221379D01*
X441232Y221075D01*
Y222728D01*
D02*
G37*
G36*
X434831D02*
X433177D01*
Y221075D01*
X433913Y221379D01*
X434526Y221993D01*
X434831Y222728D01*
D02*
G37*
G36*
X432177D02*
X430523D01*
X430828Y221993D01*
X431442Y221379D01*
X432177Y221075D01*
Y222728D01*
D02*
G37*
G36*
X562688Y232299D02*
X561328D01*
X559994Y232034D01*
X558737Y231513D01*
X557606Y230758D01*
X556644Y229796D01*
X555888Y228665D01*
X555368Y227408D01*
X555102Y226074D01*
Y224714D01*
X555368Y223379D01*
X555888Y222123D01*
X556644Y220992D01*
X557606Y220030D01*
X558737Y219274D01*
X559994Y218754D01*
X561328Y218488D01*
X562688D01*
X564022Y218754D01*
X565279Y219274D01*
X566410Y220030D01*
X567372Y220992D01*
X568127Y222123D01*
X568648Y223379D01*
X568913Y224714D01*
Y226074D01*
X568648Y227408D01*
X568127Y228665D01*
X567372Y229796D01*
X566410Y230758D01*
X565279Y231513D01*
X564022Y232034D01*
X562688Y232299D01*
D02*
G37*
G36*
X402649Y232102D02*
X401288D01*
X399954Y231837D01*
X398697Y231316D01*
X397567Y230561D01*
X396605Y229599D01*
X395849Y228468D01*
X395328Y227211D01*
X395063Y225877D01*
Y224517D01*
X395328Y223183D01*
X395849Y221926D01*
X396605Y220795D01*
X397567Y219833D01*
X398697Y219077D01*
X399954Y218557D01*
X401288Y218291D01*
X402649D01*
X403983Y218557D01*
X405239Y219077D01*
X406370Y219833D01*
X407332Y220795D01*
X408088Y221926D01*
X408609Y223183D01*
X408874Y224517D01*
Y225877D01*
X408609Y227211D01*
X408088Y228468D01*
X407332Y229599D01*
X406370Y230561D01*
X405239Y231316D01*
X403983Y231837D01*
X402649Y232102D01*
D02*
G37*
%LPD*%
D11*
X445669Y316142D02*
X474409D01*
X490158Y300394D01*
X523622Y290158D02*
X528740Y285039D01*
Y259842D02*
Y285039D01*
X516142Y310236D02*
X525591Y319685D01*
X490158Y287795D02*
X493701Y284252D01*
Y247008D02*
Y284252D01*
X470673Y264005D02*
X472441Y265773D01*
X470673Y233980D02*
Y264005D01*
X479764Y233071D02*
X493701Y247008D01*
X469764Y233071D02*
X470673Y233980D01*
X480315Y265354D02*
X489764D01*
X480118Y265158D02*
X480315Y265354D01*
X474409Y270866D02*
X480118Y265158D01*
X472441Y265773D02*
Y266142D01*
X466142Y270866D02*
X474409D01*
X528740Y259842D02*
X542843Y245739D01*
X563961D01*
X522948Y271122D02*
X524409Y269660D01*
X520079Y275197D02*
X522948Y272328D01*
X524409Y269291D02*
Y269660D01*
X522948Y271122D02*
Y272328D01*
D57*
X413386Y335433D02*
Y344433D01*
X400802Y357016D02*
X413386Y344433D01*
X568436Y261669D02*
Y273493D01*
X562515Y255748D02*
X568436Y261669D01*
X562402Y279528D02*
X568436Y273493D01*
X567952Y315631D02*
X568338Y315246D01*
Y285464D02*
Y315246D01*
X562402Y279528D02*
X568338Y285464D01*
X555512Y334252D02*
X567952Y321811D01*
Y315631D02*
Y321811D01*
X465748Y330979D02*
X467593Y329134D01*
X465748Y330979D02*
Y349213D01*
X467593Y329134D02*
X468504D01*
X462598Y352362D02*
X465748Y349213D01*
X515354Y259449D02*
Y279528D01*
X516535Y280709D01*
D58*
X555709Y383465D02*
D03*
Y369685D02*
D03*
X555512Y348031D02*
D03*
Y334252D02*
D03*
D59*
X401968Y385827D02*
D03*
Y225197D02*
D03*
X562008Y225394D02*
D03*
D60*
X469764Y233071D02*
D03*
X479764D02*
D03*
X489764D02*
D03*
X400787Y347008D02*
D03*
Y337008D02*
D03*
Y327008D02*
D03*
Y317008D02*
D03*
X448819Y368504D02*
D03*
X418898D02*
D03*
X562417Y309536D02*
D03*
Y299536D02*
D03*
Y289536D02*
D03*
X562515Y255748D02*
D03*
Y265748D02*
D03*
D61*
X499772Y233056D02*
D03*
D62*
X400802Y357016D02*
D03*
X562402Y279528D02*
D03*
X562500Y245739D02*
D03*
D63*
X552756Y303937D02*
D03*
X546850D02*
D03*
Y311024D02*
D03*
X540158D02*
D03*
X552756Y317717D02*
D03*
X546850D02*
D03*
X540158D02*
D03*
X509449Y300394D02*
D03*
X495276Y307087D02*
D03*
X491732Y294882D02*
D03*
X490158Y300394D02*
D03*
X453543Y312205D02*
D03*
X445276Y300394D02*
D03*
X467323Y358661D02*
D03*
X462992Y382283D02*
D03*
X527559Y334252D02*
D03*
X508661Y329921D02*
D03*
X501181Y318898D02*
D03*
X519685Y376378D02*
D03*
X538583Y351181D02*
D03*
X542126Y241339D02*
D03*
X554331Y262205D02*
D03*
X554724Y291339D02*
D03*
X532283Y287008D02*
D03*
X529921Y237402D02*
D03*
X520079Y265748D02*
D03*
X495276Y244094D02*
D03*
X422835Y229528D02*
D03*
X432677Y223228D02*
D03*
Y229528D02*
D03*
X441732Y223228D02*
D03*
Y229528D02*
D03*
X413386Y235433D02*
D03*
X422835D02*
D03*
X432677D02*
D03*
X441732D02*
D03*
X523622Y290158D02*
D03*
X525591Y319685D02*
D03*
X516142Y310236D02*
D03*
X490158Y287795D02*
D03*
X489764Y265354D02*
D03*
X472441Y266142D02*
D03*
X466142Y270866D02*
D03*
X445669Y316142D02*
D03*
X524409Y269291D02*
D03*
X520079Y275197D02*
D03*
X479921Y265354D02*
D03*
D64*
X413386Y335433D02*
D03*
X468504Y329134D02*
D03*
X462598Y352362D02*
D03*
X516535Y280709D02*
D03*
X515354Y259449D02*
D03*
M02*
