G04*
G04 #@! TF.GenerationSoftware,Altium Limited,Altium Designer,21.6.1 (37)*
G04*
G04 Layer_Physical_Order=1*
G04 Layer_Color=255*
%FSLAX25Y25*%
%MOIN*%
G70*
G04*
G04 #@! TF.SameCoordinates,5AA223CE-A3B5-4ABD-9865-E1F73ECA8A72*
G04*
G04*
G04 #@! TF.FilePolarity,Positive*
G04*
G01*
G75*
%ADD11C,0.01000*%
%ADD13C,0.00394*%
%ADD16R,0.07087X0.03937*%
%ADD17R,0.02756X0.06299*%
%ADD18R,0.04724X0.05512*%
%ADD19R,0.04724X0.08661*%
%ADD20R,0.06299X0.05512*%
%ADD21R,0.04528X0.07087*%
%ADD22R,0.07087X0.04331*%
%ADD23R,0.04842X0.07087*%
%ADD24R,0.24410X0.19291*%
%ADD25R,0.08268X0.03740*%
%ADD26R,0.07087X0.04528*%
%ADD27R,0.03150X0.00984*%
%ADD28R,0.00984X0.03150*%
%ADD29R,0.10630X0.10236*%
%ADD30R,0.05118X0.04331*%
%ADD31R,0.03937X0.07087*%
%ADD32R,0.01378X0.01968*%
%ADD33R,0.05709X0.01181*%
%ADD34R,0.01181X0.05709*%
%ADD57C,0.03150*%
%ADD58C,0.07874*%
%ADD59C,0.06000*%
%ADD60C,0.06693*%
%ADD61R,0.06693X0.06693*%
%ADD62R,0.06693X0.06693*%
%ADD63C,0.02362*%
%ADD64C,0.03150*%
G36*
X570055Y217346D02*
X394512D01*
Y256685D01*
X400402D01*
Y266543D01*
X394512D01*
Y295661D01*
X400402D01*
Y297630D01*
X404020D01*
X404142Y297630D01*
X404520D01*
X404642Y297630D01*
X408350D01*
X408472Y297630D01*
X408850D01*
X408973Y297630D01*
X411219D01*
X442318Y266531D01*
X442682Y266288D01*
X443110Y266203D01*
X455504D01*
Y256685D01*
X461425D01*
Y265472D01*
X461887Y265663D01*
X469818Y257732D01*
X470182Y257489D01*
X470610Y257404D01*
X472532D01*
Y255825D01*
X472510Y255716D01*
Y253976D01*
X472502Y253937D01*
Y253354D01*
X472335D01*
Y245071D01*
X474925D01*
X480527Y239469D01*
X481246Y238989D01*
X482094Y238820D01*
X490875D01*
X495827Y233867D01*
Y229111D01*
X503717D01*
Y233867D01*
X511729Y241879D01*
X516036D01*
Y240409D01*
X516205Y239561D01*
X516685Y238843D01*
X528355Y227173D01*
X529073Y226693D01*
X529921Y226524D01*
X541831D01*
X542679Y226693D01*
X543398Y227173D01*
X548303Y232079D01*
X550893D01*
Y237868D01*
X551192D01*
X551621Y237953D01*
X551984Y238196D01*
X553548Y239759D01*
X553791Y240123D01*
X553876Y240551D01*
Y249606D01*
X553791Y250035D01*
X553548Y250398D01*
X551973Y251973D01*
X551610Y252216D01*
X551181Y252301D01*
X546527D01*
X545214Y253613D01*
Y255770D01*
X547826D01*
Y253339D01*
X556110D01*
Y258473D01*
X552961D01*
Y258789D01*
X552876Y259217D01*
X552633Y259581D01*
X548364Y263850D01*
Y265150D01*
X556110D01*
Y270284D01*
X553088D01*
Y289370D01*
X553014Y289745D01*
X553003Y289799D01*
X552997Y289842D01*
X553411Y290135D01*
X553476Y290070D01*
X553716Y289830D01*
X554370Y289559D01*
X555078D01*
X555732Y289830D01*
X556233Y290331D01*
X556504Y290985D01*
Y291692D01*
X556233Y292347D01*
X555732Y292847D01*
X555078Y293118D01*
X554370D01*
X553716Y292847D01*
X553216Y292347D01*
X552945Y291692D01*
Y290985D01*
X553086Y290643D01*
X553168Y290445D01*
X552763Y290164D01*
X552635Y290288D01*
X552760Y290162D01*
X552760Y290162D01*
X552618Y290304D01*
X550792Y292130D01*
X550429Y292373D01*
X550000Y292459D01*
X531616D01*
X531187Y292373D01*
X530824Y292130D01*
X519287Y280593D01*
X519209Y280476D01*
X518709Y280628D01*
Y281141D01*
X518378Y281940D01*
X517767Y282551D01*
X516968Y282882D01*
X516103D01*
X515304Y282551D01*
X514693Y281940D01*
X514647Y281829D01*
X513000D01*
Y283079D01*
X512774D01*
X512755Y283175D01*
X512512Y283538D01*
X503920Y292130D01*
X503557Y292373D01*
X503128Y292459D01*
X496467D01*
X496276Y292920D01*
X509322Y305967D01*
X514165D01*
Y303929D01*
Y299992D01*
Y296055D01*
Y292118D01*
Y288181D01*
Y284244D01*
X521071D01*
Y284470D01*
X521167Y284489D01*
X521530Y284732D01*
X524153Y287355D01*
X524396Y287718D01*
X524481Y288147D01*
Y288587D01*
X524630Y288649D01*
X525131Y289149D01*
X525402Y289804D01*
Y290511D01*
X525131Y291165D01*
X524630Y291666D01*
X523976Y291937D01*
X523268D01*
X522614Y291666D01*
X522113Y291165D01*
X521842Y290511D01*
Y289804D01*
X522113Y289149D01*
X522241Y289021D01*
Y288611D01*
X521533Y287902D01*
X521071Y288093D01*
Y290150D01*
Y294156D01*
X559731D01*
X560159Y294241D01*
X560523Y294484D01*
X561687Y295648D01*
X561897Y295591D01*
X562936D01*
X563939Y295860D01*
X564839Y296379D01*
X565573Y297114D01*
X566093Y298013D01*
X566362Y299017D01*
Y300056D01*
X566093Y301059D01*
X565573Y301958D01*
X564839Y302693D01*
X563939Y303212D01*
X562936Y303481D01*
X561897D01*
X560894Y303212D01*
X560750Y303129D01*
X560443Y303529D01*
X562505Y305591D01*
X562936D01*
X563939Y305860D01*
X564839Y306380D01*
X565573Y307114D01*
X566093Y308014D01*
X566362Y309017D01*
Y310055D01*
X566093Y311059D01*
X565573Y311958D01*
X564839Y312693D01*
X563939Y313212D01*
X562936Y313481D01*
X561897D01*
X560894Y313212D01*
X559994Y312693D01*
X559260Y311958D01*
X558741Y311059D01*
X558472Y310055D01*
Y309017D01*
X558741Y308014D01*
X559260Y307114D01*
X559994Y306380D01*
X560010Y306264D01*
X552110Y298364D01*
X522090D01*
X521883Y298864D01*
X524414Y301395D01*
X524657Y301758D01*
X524742Y302187D01*
Y312205D01*
X524657Y312633D01*
X524414Y312997D01*
X515335Y322075D01*
X514972Y322318D01*
X514543Y322403D01*
X511464D01*
X500792Y333075D01*
X500739Y333111D01*
X500890Y333611D01*
X511024D01*
X511872Y333780D01*
X512590Y334260D01*
X515563Y337233D01*
X516921D01*
Y336980D01*
X526386D01*
Y337233D01*
X529712D01*
X540772Y326173D01*
X541491Y325693D01*
X542339Y325524D01*
X561722D01*
X562570Y325693D01*
X563289Y326173D01*
X565346Y328231D01*
X565827Y328950D01*
X565995Y329798D01*
Y361614D01*
X565827Y362462D01*
X565346Y363181D01*
X560074Y368453D01*
X560244Y369088D01*
Y370282D01*
X559935Y371436D01*
X559338Y372470D01*
X558494Y373314D01*
X557459Y373911D01*
X556306Y374220D01*
X555112D01*
X554477Y374050D01*
X549795Y378732D01*
X549076Y379213D01*
X548228Y379381D01*
X536091D01*
Y381307D01*
X532439D01*
X532224Y381350D01*
X531941D01*
X530904Y382387D01*
X530619Y382578D01*
X530478Y383225D01*
X530493Y383257D01*
X530500Y383267D01*
D01*
X530550Y383339D01*
X536091D01*
Y391622D01*
X530051D01*
Y383758D01*
X530051Y383498D01*
D01*
X530051Y383404D01*
X529800Y382956D01*
X529753Y382954D01*
X529337Y383036D01*
X529266Y383036D01*
X527971D01*
X526428Y384579D01*
Y387028D01*
X526386Y387242D01*
Y389791D01*
X516921D01*
Y384854D01*
X521997D01*
Y383661D01*
X522165Y382814D01*
X522646Y382095D01*
X525487Y379254D01*
X526206Y378773D01*
X527054Y378605D01*
X528419D01*
X529457Y377567D01*
X530051Y377170D01*
Y373024D01*
X536091D01*
Y374950D01*
X547310D01*
X551343Y370917D01*
X551173Y370282D01*
Y369088D01*
X551482Y367934D01*
X552079Y366900D01*
X552924Y366056D01*
X553958Y365459D01*
X555112Y365150D01*
X556306D01*
X556940Y365320D01*
X561564Y360696D01*
Y330716D01*
X560804Y329956D01*
X558142D01*
X558008Y330456D01*
X558297Y330623D01*
X559141Y331467D01*
X559738Y332501D01*
X560047Y333655D01*
Y334849D01*
X559738Y336003D01*
X559141Y337037D01*
X558297Y337881D01*
X557262Y338478D01*
X556109Y338787D01*
X554915D01*
X553761Y338478D01*
X552727Y337881D01*
X551883Y337037D01*
X551554Y336468D01*
X546587D01*
X535425Y347630D01*
X534706Y348110D01*
X533858Y348279D01*
X530445D01*
X526428Y352296D01*
Y357106D01*
X526386Y357320D01*
Y359870D01*
X516921D01*
Y359617D01*
X513438D01*
X511888Y361167D01*
X512134Y361628D01*
X512457Y361564D01*
X529264D01*
Y360819D01*
X535303D01*
Y369102D01*
X529264D01*
Y365995D01*
X513375D01*
X508134Y371236D01*
Y388591D01*
X482527D01*
Y377806D01*
X413386D01*
X412538Y377638D01*
X411819Y377157D01*
X405913Y371252D01*
X405433Y370533D01*
X405265Y369685D01*
Y364612D01*
X401614Y360961D01*
X396858D01*
Y353072D01*
X404747D01*
Y357828D01*
X409047Y362128D01*
X409527Y362846D01*
X409696Y363694D01*
Y368767D01*
X414304Y373375D01*
X459595D01*
Y353150D01*
X459764Y352302D01*
X460244Y351583D01*
X461032Y350795D01*
X461213Y350674D01*
X461367Y350520D01*
X461569Y350436D01*
X461751Y350315D01*
X461965Y350272D01*
X462166Y350189D01*
X462384D01*
X462598Y350146D01*
X462813Y350189D01*
X463031D01*
X463232Y350272D01*
X463446Y350315D01*
X463628Y350436D01*
X463830Y350520D01*
X463984Y350674D01*
X464165Y350795D01*
X464287Y350977D01*
X464441Y351131D01*
X464524Y351333D01*
X464646Y351514D01*
X464688Y351728D01*
X464772Y351930D01*
Y352148D01*
X464814Y352362D01*
X464772Y352576D01*
Y352795D01*
X464688Y352996D01*
X464646Y353210D01*
X464524Y353392D01*
X464441Y353593D01*
X464287Y353748D01*
X464165Y353929D01*
X464027Y354067D01*
Y373375D01*
X470895D01*
X471055Y372941D01*
X471055Y372875D01*
Y367216D01*
X476205D01*
X482784Y360638D01*
X483502Y360158D01*
X484350Y359989D01*
X506799D01*
X507656Y359131D01*
X507465Y358669D01*
X482527D01*
Y338619D01*
X482067Y338417D01*
X481743Y338674D01*
Y343012D01*
X481701Y343226D01*
Y346563D01*
X473417D01*
Y340839D01*
X477312D01*
Y337672D01*
X477480Y336824D01*
X477888Y336214D01*
X477499Y335895D01*
X465753Y347642D01*
X465389Y347885D01*
X464961Y347970D01*
X441015D01*
X422365Y366620D01*
X422574Y366981D01*
X422843Y367985D01*
Y369023D01*
X422574Y370027D01*
X422054Y370926D01*
X421320Y371661D01*
X420420Y372180D01*
X419417Y372449D01*
X418378D01*
X417375Y372180D01*
X416475Y371661D01*
X415741Y370926D01*
X415222Y370027D01*
X414953Y369023D01*
Y367985D01*
X415222Y366981D01*
X415741Y366082D01*
X416475Y365347D01*
X417375Y364828D01*
X418378Y364559D01*
X419417D01*
X420420Y364828D01*
X420781Y365036D01*
X439710Y346108D01*
X439681Y345902D01*
X439533Y345608D01*
X408268D01*
X407839Y345523D01*
X407476Y345280D01*
X402671Y340476D01*
X402310Y340684D01*
X401307Y340953D01*
X400268D01*
X399265Y340684D01*
X398365Y340165D01*
X397631Y339430D01*
X397561Y339309D01*
X397061Y339443D01*
Y341698D01*
X398904Y343540D01*
X399265Y343332D01*
X400268Y343063D01*
X401307D01*
X402310Y343332D01*
X403210Y343851D01*
X403944Y344586D01*
X404463Y345485D01*
X404732Y346488D01*
Y347527D01*
X404463Y348531D01*
X403944Y349430D01*
X403210Y350165D01*
X402310Y350684D01*
X401307Y350953D01*
X400268D01*
X399265Y350684D01*
X398365Y350165D01*
X397631Y349430D01*
X397111Y348531D01*
X396843Y347527D01*
Y346488D01*
X397111Y345485D01*
X397320Y345124D01*
X395149Y342953D01*
X395012Y342748D01*
X394512Y342899D01*
Y392890D01*
X399669D01*
X399768Y392390D01*
X398697Y391946D01*
X397567Y391191D01*
X396605Y390229D01*
X395849Y389098D01*
X395328Y387841D01*
X395063Y386507D01*
Y385147D01*
X395328Y383812D01*
X395849Y382556D01*
X396605Y381425D01*
X397567Y380463D01*
X398697Y379707D01*
X399954Y379187D01*
X401288Y378921D01*
X402649D01*
X403983Y379187D01*
X405239Y379707D01*
X406370Y380463D01*
X407332Y381425D01*
X408088Y382556D01*
X408609Y383812D01*
X408874Y385147D01*
Y386507D01*
X408609Y387841D01*
X408088Y389098D01*
X407332Y390229D01*
X406370Y391191D01*
X405239Y391946D01*
X404169Y392390D01*
X404268Y392890D01*
X570055D01*
Y217346D01*
D02*
G37*
G36*
X482527Y368102D02*
X505000D01*
X508285Y364817D01*
X508039Y364356D01*
X507717Y364421D01*
X485268D01*
X479339Y370350D01*
Y372875D01*
X479339Y372941D01*
X479498Y373375D01*
X482527D01*
Y368102D01*
D02*
G37*
G36*
X463725Y342565D02*
X463518Y342065D01*
X409055D01*
X408627Y341980D01*
X408263Y341737D01*
X405114Y338587D01*
X405008Y338429D01*
X404535Y338508D01*
X404323Y338960D01*
X408732Y343368D01*
X462922D01*
X463725Y342565D01*
D02*
G37*
G36*
X510953Y355835D02*
X511672Y355354D01*
X512520Y355186D01*
X516921D01*
Y354933D01*
X521997D01*
Y351378D01*
X522165Y350530D01*
X522646Y349811D01*
X527961Y344496D01*
X528680Y344016D01*
X529528Y343847D01*
X532940D01*
X544102Y332685D01*
X544821Y332205D01*
X545669Y332036D01*
X551554D01*
X551883Y331467D01*
X552727Y330623D01*
X553016Y330456D01*
X552882Y329956D01*
X543256D01*
X532197Y341016D01*
X531478Y341496D01*
X530630Y341665D01*
X526386D01*
Y341917D01*
X516921D01*
Y341665D01*
X514646D01*
X513798Y341496D01*
X513079Y341016D01*
X510106Y338043D01*
X508576D01*
X508134Y338181D01*
Y358000D01*
X508596Y358192D01*
X510953Y355835D01*
D02*
G37*
G36*
X472078Y331062D02*
X471744Y330701D01*
X471026Y331181D01*
X470178Y331350D01*
X468504D01*
X468290Y331307D01*
X468072D01*
X467870Y331224D01*
X467656Y331181D01*
X467475Y331060D01*
X467273Y330976D01*
X467119Y330822D01*
X466937Y330701D01*
X466816Y330519D01*
X466662Y330365D01*
X466578Y330163D01*
X466457Y329982D01*
X466414Y329768D01*
X466331Y329566D01*
Y329348D01*
X466288Y329134D01*
X466331Y328920D01*
Y328702D01*
X466414Y328500D01*
X466457Y328286D01*
X466578Y328104D01*
X466662Y327903D01*
X466816Y327748D01*
X466937Y327567D01*
X467119Y327446D01*
X467273Y327291D01*
X467475Y327208D01*
X467656Y327087D01*
X467870Y327044D01*
X468072Y326961D01*
X468290D01*
X468504Y326918D01*
X469260D01*
X473756Y322422D01*
X473592Y321879D01*
X473559Y321873D01*
X473196Y321630D01*
X468717Y317151D01*
X468217Y317358D01*
Y325008D01*
X462492D01*
Y316823D01*
X462290Y316783D01*
X461926Y316540D01*
X453593Y308207D01*
X427756D01*
X427327Y308121D01*
X426964Y307878D01*
X424211Y305126D01*
X421843D01*
X421842Y305126D01*
X421465D01*
Y305126D01*
X421343Y305126D01*
X417512D01*
Y305126D01*
X417134D01*
Y305126D01*
X413181D01*
Y305126D01*
X412803D01*
Y305126D01*
X408973D01*
X408850Y305126D01*
X408472D01*
X408350Y305126D01*
X404642D01*
X404520Y305126D01*
X404142D01*
X404020Y305126D01*
X400189D01*
Y302370D01*
X394512D01*
Y334262D01*
X395012Y334414D01*
X395149Y334208D01*
X397988Y331369D01*
X398351Y331127D01*
X398780Y331042D01*
X398884D01*
X399018Y330541D01*
X398365Y330165D01*
X397631Y329430D01*
X397111Y328531D01*
X396843Y327527D01*
Y326488D01*
X397111Y325485D01*
X397631Y324586D01*
X398365Y323851D01*
X399265Y323332D01*
X400268Y323063D01*
X401307D01*
X402310Y323332D01*
X403210Y323851D01*
X403944Y324586D01*
X404463Y325485D01*
X404732Y326488D01*
Y327527D01*
X404463Y328531D01*
X403944Y329430D01*
X403210Y330165D01*
X402557Y330541D01*
X402691Y331042D01*
X404926D01*
X405355Y331127D01*
X405718Y331369D01*
X406697Y332349D01*
X406940Y332712D01*
X407025Y333141D01*
Y337331D01*
X409519Y339825D01*
X463316D01*
X472078Y331062D01*
D02*
G37*
G36*
X493102Y326189D02*
Y319392D01*
X492640Y319201D01*
X492439Y319402D01*
X492076Y319645D01*
X491647Y319730D01*
X486425D01*
Y326189D01*
X486821Y326439D01*
X492706D01*
X493102Y326189D01*
D02*
G37*
G36*
X507554Y316846D02*
X507347Y316347D01*
X498995D01*
X498976Y316443D01*
X498733Y316806D01*
X498134Y317405D01*
X498236Y317905D01*
X498236D01*
X498236Y317905D01*
Y325511D01*
X498698Y325703D01*
X507554Y316846D01*
D02*
G37*
G36*
X520534Y310166D02*
Y308276D01*
X517351D01*
X517228Y308552D01*
X517198Y308776D01*
X517650Y309228D01*
X517921Y309882D01*
Y310590D01*
X517650Y311244D01*
X517150Y311745D01*
X516496Y312016D01*
X515788D01*
X515134Y311745D01*
X514633Y311244D01*
X514362Y310590D01*
Y310040D01*
X512528Y308207D01*
X503297D01*
X502869Y308121D01*
X502505Y307878D01*
X500077Y305451D01*
X496863D01*
X496656Y305951D01*
X496784Y306079D01*
X497055Y306733D01*
Y307441D01*
X496784Y308095D01*
X496284Y308595D01*
X495630Y308866D01*
X494922D01*
X494268Y308595D01*
X493767Y308095D01*
X493496Y307441D01*
Y306733D01*
X493767Y306079D01*
X493895Y305951D01*
X493688Y305451D01*
X490600D01*
X488581Y307470D01*
X490552Y309441D01*
X513000D01*
Y316347D01*
X512774D01*
X512755Y316443D01*
X512512Y316806D01*
X511253Y318065D01*
X511460Y318565D01*
X512135D01*
X520534Y310166D01*
D02*
G37*
G36*
X476737Y326524D02*
X477165Y326439D01*
X480895D01*
X481291Y326189D01*
Y317905D01*
X484447D01*
X484535Y317818D01*
X484898Y317575D01*
X485326Y317490D01*
X491183D01*
X491865Y316808D01*
X491673Y316347D01*
X488969D01*
Y311025D01*
X486219Y308276D01*
X485470D01*
Y312402D01*
X485385Y312831D01*
X485142Y313194D01*
X480028Y318308D01*
Y325008D01*
X477437D01*
X476040Y326405D01*
X476373Y326767D01*
X476737Y326524D01*
D02*
G37*
G36*
X505692Y305505D02*
X492646Y292459D01*
X487803D01*
Y294312D01*
X487899Y294331D01*
X488263Y294574D01*
X489756Y296068D01*
X490180Y295784D01*
X489953Y295236D01*
Y294528D01*
X490224Y293874D01*
X490724Y293373D01*
X491378Y293102D01*
X492086D01*
X492740Y293373D01*
X493241Y293874D01*
X493512Y294528D01*
Y295236D01*
X493241Y295890D01*
X492740Y296391D01*
X492086Y296661D01*
X491378D01*
X490830Y296434D01*
X490547Y296858D01*
X490689Y297000D01*
X490932Y297364D01*
X491017Y297792D01*
Y298823D01*
X491165Y298885D01*
X491666Y299386D01*
X491937Y300040D01*
Y300748D01*
X491666Y301402D01*
X491165Y301902D01*
X490511Y302173D01*
X489804D01*
X489150Y301902D01*
X488649Y301402D01*
X488378Y300748D01*
Y300040D01*
X488649Y299386D01*
X488777Y299258D01*
Y298256D01*
X488265Y297744D01*
X487803Y297936D01*
Y299992D01*
Y304427D01*
X488265Y304618D01*
X489344Y303539D01*
X489708Y303296D01*
X490136Y303211D01*
X500541D01*
X500970Y303296D01*
X501333Y303539D01*
X503761Y305967D01*
X505501D01*
X505692Y305505D01*
D02*
G37*
G36*
X474303Y318917D02*
Y316725D01*
X478444D01*
X479541Y315627D01*
X479350Y315165D01*
X474303D01*
Y306882D01*
X480027D01*
Y314488D01*
X480489Y314679D01*
X483230Y311938D01*
Y308276D01*
X480898D01*
Y303929D01*
Y300332D01*
X479996D01*
X478758Y301571D01*
Y305515D01*
X474392D01*
X474333Y305602D01*
X470973Y308963D01*
X470609Y309205D01*
X470181Y309291D01*
X468216D01*
Y314628D01*
X468898D01*
X469326Y314713D01*
X469690Y314956D01*
X473841Y319108D01*
X474303Y318917D01*
D02*
G37*
G36*
X448568Y268943D02*
X448361Y268443D01*
X443574D01*
X414849Y297168D01*
X415040Y297630D01*
X417134D01*
Y297630D01*
X417512D01*
Y297630D01*
X419881D01*
X448568Y268943D01*
D02*
G37*
G36*
X455261Y270911D02*
X455232Y270705D01*
X455084Y270411D01*
X450267D01*
X423510Y297168D01*
X423702Y297630D01*
X425673D01*
X425795Y297630D01*
Y297630D01*
X426173D01*
Y297630D01*
X428542D01*
X455261Y270911D01*
D02*
G37*
G36*
X462492Y313285D02*
Y306882D01*
X468216D01*
Y307051D01*
X469717D01*
X472439Y304328D01*
X472443Y304308D01*
Y299987D01*
X477174D01*
X478591Y298570D01*
X478384Y298070D01*
X472461D01*
Y292543D01*
X477172D01*
X477391Y292043D01*
X477258Y291844D01*
X477173Y291415D01*
Y291150D01*
X475510D01*
X475402Y291171D01*
X472655D01*
X469764Y294062D01*
Y298006D01*
X463449D01*
Y292479D01*
X468180D01*
X471399Y289260D01*
X471763Y289017D01*
X472191Y288931D01*
X473910D01*
Y283403D01*
X467823D01*
Y291150D01*
X462099D01*
Y283403D01*
X450267D01*
X436503Y297168D01*
X436694Y297630D01*
X438787D01*
Y305126D01*
X434835D01*
X434835Y305126D01*
X434457D01*
Y305126D01*
X434335Y305126D01*
X430504D01*
X430504Y305126D01*
X430126D01*
Y305126D01*
X430004Y305126D01*
X428032D01*
X427841Y305588D01*
X428220Y305967D01*
X454057D01*
X454485Y306052D01*
X454849Y306295D01*
X462030Y313476D01*
X462492Y313285D01*
D02*
G37*
G36*
X550848Y288907D02*
Y270284D01*
X547826D01*
Y270284D01*
X547554Y270171D01*
X546789Y270937D01*
Y273024D01*
X549811D01*
Y278158D01*
X541527D01*
Y273024D01*
X544549D01*
Y270473D01*
X544634Y270044D01*
X544877Y269681D01*
X546124Y268434D01*
Y267823D01*
X542429D01*
Y271661D01*
X540490D01*
Y272835D01*
X540405Y273263D01*
X540162Y273627D01*
X539892Y273897D01*
Y275796D01*
X539870Y275904D01*
Y281701D01*
X534332D01*
X534178Y282201D01*
X538260Y286282D01*
X541527D01*
Y284835D01*
X549811D01*
Y289291D01*
X550273Y289482D01*
X550848Y288907D01*
D02*
G37*
G36*
X509342Y283541D02*
X509151Y283079D01*
X492756D01*
X492604Y283579D01*
X492721Y283657D01*
X499283Y290219D01*
X502664D01*
X509342Y283541D01*
D02*
G37*
G36*
X487694Y283744D02*
X482629Y278679D01*
X479634D01*
Y281208D01*
X479836Y281249D01*
X480200Y281491D01*
X481152Y282444D01*
X481395Y282807D01*
X481480Y283236D01*
Y284244D01*
X487486D01*
X487694Y283744D01*
D02*
G37*
G36*
X541527Y289969D02*
Y288522D01*
X537796D01*
X537367Y288437D01*
X537004Y288194D01*
X532158Y283348D01*
X531915Y282985D01*
X531830Y282556D01*
Y273281D01*
X528503D01*
X528059Y273417D01*
Y281701D01*
X524215D01*
X524024Y282163D01*
X532080Y290219D01*
X541131D01*
X541527Y289969D01*
D02*
G37*
G36*
X449011Y281491D02*
X449375Y281249D01*
X449803Y281164D01*
X462099D01*
Y273417D01*
X467823D01*
Y281164D01*
X473910D01*
Y273417D01*
X479634D01*
Y276439D01*
X483092D01*
X483521Y276524D01*
X483884Y276767D01*
X488507Y281389D01*
X488969Y281198D01*
Y277757D01*
X482410Y271199D01*
X476378D01*
X475949Y271113D01*
X475586Y270871D01*
X472637Y267921D01*
X472087D01*
X471433Y267650D01*
X470932Y267150D01*
X470661Y266496D01*
Y265788D01*
X470932Y265134D01*
X471433Y264633D01*
X472087Y264362D01*
X472795D01*
X473449Y264633D01*
X473949Y265134D01*
X474221Y265788D01*
Y266337D01*
X476842Y268959D01*
X477415D01*
X477623Y268459D01*
X475586Y266422D01*
X475343Y266059D01*
X475337Y266027D01*
X475246Y265891D01*
X475161Y265462D01*
Y263787D01*
X472532D01*
Y262383D01*
X472070Y262192D01*
X465636Y268625D01*
X465702Y268824D01*
X465881Y269087D01*
X466496D01*
X467150Y269357D01*
X467650Y269858D01*
X467921Y270512D01*
Y271220D01*
X467650Y271874D01*
X467150Y272375D01*
X466496Y272646D01*
X465788D01*
X465134Y272375D01*
X465085Y272326D01*
X464965Y272446D01*
X464602Y272688D01*
X464173Y272774D01*
X456566D01*
X432172Y297168D01*
X432363Y297630D01*
X432873D01*
X449011Y281491D01*
D02*
G37*
G36*
X504876Y275500D02*
X504961Y275071D01*
X505204Y274708D01*
X507476Y272436D01*
X507839Y272194D01*
X508268Y272108D01*
X510917D01*
Y263968D01*
X516642D01*
Y271619D01*
X517141Y271826D01*
X517598Y271370D01*
X517961Y271127D01*
X518390Y271041D01*
X522936D01*
X523143Y270541D01*
X522901Y270299D01*
X522630Y269645D01*
Y268937D01*
X522901Y268283D01*
X523401Y267783D01*
X524055Y267512D01*
X524763D01*
X525418Y267783D01*
X525918Y268283D01*
X525980Y268432D01*
X526245D01*
X526674Y268517D01*
X527037Y268760D01*
X527236Y268959D01*
X530406D01*
Y267823D01*
X526567D01*
Y263673D01*
Y259736D01*
Y255799D01*
X530406D01*
Y251961D01*
X529928Y251907D01*
X525591D01*
X525162Y251822D01*
X524799Y251579D01*
X521041Y247822D01*
X520579Y248013D01*
Y250205D01*
X514855D01*
Y246310D01*
X510811D01*
X509963Y246142D01*
X509244Y245661D01*
X502450Y238867D01*
X501988Y239059D01*
Y254520D01*
X504043D01*
Y256445D01*
X514567D01*
X515415Y256614D01*
X516134Y257094D01*
X516921Y257882D01*
X517042Y258063D01*
X517197Y258218D01*
X517280Y258419D01*
X517402Y258601D01*
X517444Y258815D01*
X517528Y259016D01*
Y259235D01*
X517570Y259449D01*
X517528Y259663D01*
Y259881D01*
X517444Y260083D01*
X517402Y260297D01*
X517280Y260478D01*
X517197Y260680D01*
X517042Y260834D01*
X516921Y261016D01*
X516740Y261137D01*
X516585Y261291D01*
X516384Y261375D01*
X516202Y261496D01*
X515988Y261539D01*
X515787Y261622D01*
X515568D01*
X515354Y261665D01*
X515140Y261622D01*
X514922D01*
X514720Y261539D01*
X514506Y261496D01*
X514325Y261375D01*
X514123Y261291D01*
X513969Y261137D01*
X513788Y261016D01*
X513649Y260877D01*
X504043D01*
Y262803D01*
X503790D01*
Y263968D01*
X504831D01*
Y272252D01*
X499106D01*
Y263968D01*
X499359D01*
Y262803D01*
X498319D01*
Y257653D01*
X498206Y257540D01*
X497725Y256821D01*
X497557Y255973D01*
Y239059D01*
X497095Y238867D01*
X493359Y242603D01*
X492640Y243083D01*
X491792Y243252D01*
X483012D01*
X478059Y248204D01*
Y251193D01*
X478200Y251221D01*
X478564Y251464D01*
X479729Y252629D01*
X479972Y252993D01*
X480057Y253421D01*
Y254323D01*
X482784D01*
Y257488D01*
X482784D01*
X482795Y257983D01*
X486008Y261195D01*
X486508Y260988D01*
Y254520D01*
X492232D01*
Y262803D01*
X486522D01*
Y264888D01*
X487522Y265888D01*
X487811Y265776D01*
X487984Y265642D01*
Y265000D01*
X488255Y264346D01*
X488756Y263846D01*
X489410Y263575D01*
X490118D01*
X490772Y263846D01*
X491272Y264346D01*
X491543Y265000D01*
Y265470D01*
X498823Y272750D01*
X499066Y273113D01*
X499151Y273542D01*
Y276173D01*
X504876D01*
Y275500D01*
D02*
G37*
G36*
X542975Y253150D02*
X543060Y252721D01*
X543303Y252358D01*
X545076Y250584D01*
X545366Y250204D01*
Y241921D01*
X551090D01*
Y248483D01*
X551590Y248750D01*
X551636Y248720D01*
Y241015D01*
X551262Y240641D01*
X550893Y240362D01*
Y240362D01*
X550893Y240362D01*
X545169D01*
Y235212D01*
X540913Y230956D01*
X530839D01*
X520468Y241327D01*
Y241921D01*
X520579D01*
Y244972D01*
X520895D01*
X521323Y245057D01*
X521687Y245300D01*
X526054Y249668D01*
X526666D01*
Y241921D01*
X532390D01*
Y249689D01*
X532712Y249753D01*
X533055Y249982D01*
X533140Y249965D01*
X533555Y249768D01*
Y241921D01*
X539279D01*
Y250204D01*
X538521D01*
Y251961D01*
X542429D01*
Y255799D01*
X542975D01*
Y253150D01*
D02*
G37*
%LPC*%
G36*
X463346Y384063D02*
X462638D01*
X461984Y383792D01*
X461483Y383292D01*
X461213Y382637D01*
Y381929D01*
X461483Y381275D01*
X461984Y380775D01*
X462638Y380504D01*
X463346D01*
X464000Y380775D01*
X464501Y381275D01*
X464772Y381929D01*
Y382637D01*
X464501Y383292D01*
X464000Y383792D01*
X463346Y384063D01*
D02*
G37*
G36*
X479339Y384752D02*
X471055D01*
Y379028D01*
X479339D01*
Y384752D01*
D02*
G37*
G36*
X556306Y388000D02*
X555112D01*
X553958Y387691D01*
X552924Y387094D01*
X552079Y386249D01*
X551482Y385215D01*
X551173Y384062D01*
Y382868D01*
X551482Y381714D01*
X552079Y380680D01*
X552924Y379835D01*
X553958Y379238D01*
X555112Y378929D01*
X556306D01*
X557459Y379238D01*
X558494Y379835D01*
X559338Y380680D01*
X559935Y381714D01*
X560244Y382868D01*
Y384062D01*
X559935Y385215D01*
X559338Y386249D01*
X558494Y387094D01*
X557459Y387691D01*
X556306Y388000D01*
D02*
G37*
G36*
X520039Y378157D02*
X519331D01*
X518677Y377887D01*
X518176Y377386D01*
X517906Y376732D01*
Y376024D01*
X518176Y375370D01*
X518677Y374869D01*
X519331Y374598D01*
X520039D01*
X520693Y374869D01*
X521194Y375370D01*
X521465Y376024D01*
Y376732D01*
X521194Y377386D01*
X520693Y377887D01*
X520039Y378157D01*
D02*
G37*
G36*
X526386Y371839D02*
X516921D01*
Y366902D01*
X526386D01*
Y371839D01*
D02*
G37*
G36*
X449338Y372449D02*
X448300D01*
X447296Y372180D01*
X446397Y371661D01*
X445662Y370926D01*
X445143Y370027D01*
X444874Y369023D01*
Y367985D01*
X445143Y366981D01*
X445662Y366082D01*
X446397Y365347D01*
X447296Y364828D01*
X448300Y364559D01*
X449338D01*
X450342Y364828D01*
X451241Y365347D01*
X451976Y366082D01*
X452495Y366981D01*
X452764Y367985D01*
Y369023D01*
X452495Y370027D01*
X451976Y370926D01*
X451241Y371661D01*
X450342Y372180D01*
X449338Y372449D01*
D02*
G37*
G36*
X467677Y360441D02*
X466969D01*
X466315Y360170D01*
X465814Y359669D01*
X465543Y359015D01*
Y358308D01*
X465814Y357653D01*
X466315Y357153D01*
X466969Y356882D01*
X467677D01*
X468331Y357153D01*
X468831Y357653D01*
X469102Y358308D01*
Y359015D01*
X468831Y359669D01*
X468331Y360170D01*
X467677Y360441D01*
D02*
G37*
G36*
X481701Y358374D02*
X473417D01*
Y352650D01*
X481701D01*
Y358374D01*
D02*
G37*
G36*
X535303Y358787D02*
X529264D01*
Y350504D01*
X535303D01*
Y358787D01*
D02*
G37*
G36*
X538937Y352961D02*
X538229D01*
X537575Y352690D01*
X537074Y352189D01*
X536803Y351535D01*
Y350827D01*
X537074Y350173D01*
X537575Y349673D01*
X538229Y349402D01*
X538937D01*
X539591Y349673D01*
X540091Y350173D01*
X540362Y350827D01*
Y351535D01*
X540091Y352189D01*
X539591Y352690D01*
X538937Y352961D01*
D02*
G37*
G36*
X556109Y352567D02*
X554915D01*
X553761Y352258D01*
X552727Y351661D01*
X551883Y350816D01*
X551286Y349782D01*
X550976Y348629D01*
Y347434D01*
X551286Y346281D01*
X551883Y345247D01*
X552727Y344402D01*
X553761Y343805D01*
X554915Y343496D01*
X556109D01*
X557262Y343805D01*
X558297Y344402D01*
X559141Y345247D01*
X559738Y346281D01*
X560047Y347434D01*
Y348629D01*
X559738Y349782D01*
X559141Y350816D01*
X558297Y351661D01*
X557262Y352258D01*
X556109Y352567D01*
D02*
G37*
G36*
X527913Y336032D02*
X527205D01*
X526551Y335761D01*
X526051Y335260D01*
X525779Y334606D01*
Y333898D01*
X526051Y333244D01*
X526551Y332743D01*
X527205Y332472D01*
X527913D01*
X528567Y332743D01*
X529068Y333244D01*
X529339Y333898D01*
Y334606D01*
X529068Y335260D01*
X528567Y335761D01*
X527913Y336032D01*
D02*
G37*
G36*
X509015Y331701D02*
X508307D01*
X507653Y331430D01*
X507153Y330929D01*
X506882Y330275D01*
Y329567D01*
X507153Y328913D01*
X507653Y328413D01*
X508307Y328142D01*
X509015D01*
X509669Y328413D01*
X510170Y328913D01*
X510441Y329567D01*
Y330275D01*
X510170Y330929D01*
X509669Y331430D01*
X509015Y331701D01*
D02*
G37*
G36*
X517429Y331307D02*
X511705D01*
Y323024D01*
X517429D01*
Y331307D01*
D02*
G37*
G36*
X529240D02*
X523516D01*
Y323024D01*
X526500D01*
X527015Y322509D01*
X525963Y321457D01*
X525945Y321465D01*
X525237D01*
X524582Y321194D01*
X524082Y320693D01*
X523811Y320039D01*
Y319331D01*
X524082Y318677D01*
X524582Y318176D01*
X525237Y317905D01*
X525945D01*
X526599Y318176D01*
X527099Y318677D01*
X527370Y319331D01*
Y319697D01*
X528599Y320925D01*
X529674Y319850D01*
Y316642D01*
X527748D01*
Y310917D01*
X536031D01*
Y316642D01*
X534105D01*
Y320768D01*
X533937Y321616D01*
X533456Y322335D01*
X532177Y323614D01*
X529240Y326551D01*
Y331307D01*
D02*
G37*
G36*
X553110Y319496D02*
X552402D01*
X551748Y319225D01*
X551247Y318725D01*
X550976Y318071D01*
Y317363D01*
X551247Y316708D01*
X551748Y316208D01*
X552402Y315937D01*
X553110D01*
X553764Y316208D01*
X554264Y316708D01*
X554535Y317363D01*
Y318071D01*
X554264Y318725D01*
X553764Y319225D01*
X553110Y319496D01*
D02*
G37*
G36*
X547204D02*
X546496D01*
X545842Y319225D01*
X545342Y318725D01*
X545071Y318071D01*
Y317363D01*
X545342Y316708D01*
X545842Y316208D01*
X546496Y315937D01*
X547204D01*
X547858Y316208D01*
X548359Y316708D01*
X548630Y317363D01*
Y318071D01*
X548359Y318725D01*
X547858Y319225D01*
X547204Y319496D01*
D02*
G37*
G36*
X540511D02*
X539804D01*
X539149Y319225D01*
X538649Y318725D01*
X538378Y318071D01*
Y317363D01*
X538649Y316708D01*
X539149Y316208D01*
X539804Y315937D01*
X540511D01*
X541165Y316208D01*
X541666Y316708D01*
X541937Y317363D01*
Y318071D01*
X541666Y318725D01*
X541165Y319225D01*
X540511Y319496D01*
D02*
G37*
G36*
X547204Y312803D02*
X546496D01*
X545842Y312532D01*
X545342Y312032D01*
X545071Y311378D01*
Y310670D01*
X545342Y310016D01*
X545842Y309515D01*
X546496Y309244D01*
X547204D01*
X547858Y309515D01*
X548359Y310016D01*
X548630Y310670D01*
Y311378D01*
X548359Y312032D01*
X547858Y312532D01*
X547204Y312803D01*
D02*
G37*
G36*
X540511D02*
X539804D01*
X539149Y312532D01*
X538649Y312032D01*
X538378Y311378D01*
Y310670D01*
X538649Y310016D01*
X539149Y309515D01*
X539804Y309244D01*
X540511D01*
X541165Y309515D01*
X541666Y310016D01*
X541937Y310670D01*
Y311378D01*
X541666Y312032D01*
X541165Y312532D01*
X540511Y312803D01*
D02*
G37*
G36*
X553110Y305716D02*
X552402D01*
X551748Y305446D01*
X551247Y304945D01*
X550976Y304291D01*
Y303583D01*
X551247Y302929D01*
X551748Y302428D01*
X552402Y302157D01*
X553110D01*
X553764Y302428D01*
X554264Y302929D01*
X554535Y303583D01*
Y304291D01*
X554264Y304945D01*
X553764Y305446D01*
X553110Y305716D01*
D02*
G37*
G36*
X547204D02*
X546496D01*
X545842Y305446D01*
X545342Y304945D01*
X545071Y304291D01*
Y303583D01*
X545342Y302929D01*
X545842Y302428D01*
X546496Y302157D01*
X547204D01*
X547858Y302428D01*
X548359Y302929D01*
X548630Y303583D01*
Y304291D01*
X548359Y304945D01*
X547858Y305446D01*
X547204Y305716D01*
D02*
G37*
G36*
X536031Y304831D02*
X527748D01*
Y299107D01*
X536031D01*
Y304831D01*
D02*
G37*
G36*
X509803Y302173D02*
X509095D01*
X508441Y301902D01*
X507940Y301402D01*
X507669Y300748D01*
Y300040D01*
X507940Y299386D01*
X508441Y298885D01*
X509095Y298614D01*
X509803D01*
X510457Y298885D01*
X510957Y299386D01*
X511228Y300040D01*
Y300748D01*
X510957Y301402D01*
X510457Y301902D01*
X509803Y302173D01*
D02*
G37*
G36*
X562936Y293481D02*
X561897D01*
X560894Y293212D01*
X559994Y292693D01*
X559260Y291958D01*
X558741Y291059D01*
X558472Y290055D01*
Y289017D01*
X558741Y288014D01*
X559260Y287114D01*
X559994Y286380D01*
X560894Y285860D01*
X561897Y285591D01*
X562936D01*
X563939Y285860D01*
X564839Y286380D01*
X565573Y287114D01*
X566093Y288014D01*
X566362Y289017D01*
Y290055D01*
X566093Y291059D01*
X565573Y291958D01*
X564839Y292693D01*
X563939Y293212D01*
X562936Y293481D01*
D02*
G37*
G36*
X566347Y283472D02*
X558457D01*
Y275583D01*
X566347D01*
Y283472D01*
D02*
G37*
G36*
X563034Y269693D02*
X561996D01*
X560992Y269424D01*
X560093Y268905D01*
X559358Y268170D01*
X558839Y267271D01*
X558570Y266267D01*
Y265229D01*
X558839Y264225D01*
X559358Y263326D01*
X560093Y262591D01*
X560992Y262072D01*
X561996Y261803D01*
X563034D01*
X564038Y262072D01*
X564937Y262591D01*
X565672Y263326D01*
X566191Y264225D01*
X566460Y265229D01*
Y266267D01*
X566191Y267271D01*
X565672Y268170D01*
X564937Y268905D01*
X564038Y269424D01*
X563034Y269693D01*
D02*
G37*
G36*
X554685Y263984D02*
X553977D01*
X553323Y263713D01*
X552822Y263213D01*
X552551Y262559D01*
Y261851D01*
X552822Y261197D01*
X553323Y260696D01*
X553977Y260425D01*
X554685D01*
X555339Y260696D01*
X555839Y261197D01*
X556110Y261851D01*
Y262559D01*
X555839Y263213D01*
X555339Y263713D01*
X554685Y263984D01*
D02*
G37*
G36*
X440325Y262811D02*
X439596D01*
X438891Y262622D01*
X438259Y262257D01*
X437743Y261741D01*
X437378Y261109D01*
X437189Y260404D01*
Y259675D01*
X437378Y258969D01*
X437743Y258337D01*
X438259Y257821D01*
X438891Y257457D01*
X439596Y257268D01*
X440325D01*
X441031Y257457D01*
X441663Y257821D01*
X442178Y258337D01*
X442543Y258969D01*
X442732Y259675D01*
Y260404D01*
X442543Y261109D01*
X442178Y261741D01*
X441663Y262257D01*
X441031Y262622D01*
X440325Y262811D01*
D02*
G37*
G36*
X408829D02*
X408100D01*
X407395Y262622D01*
X406763Y262257D01*
X406247Y261741D01*
X405882Y261109D01*
X405693Y260404D01*
Y259675D01*
X405882Y258969D01*
X406247Y258337D01*
X406763Y257821D01*
X407395Y257457D01*
X408100Y257268D01*
X408829D01*
X409534Y257457D01*
X410166Y257821D01*
X410682Y258337D01*
X411047Y258969D01*
X411236Y259675D01*
Y260404D01*
X411047Y261109D01*
X410682Y261741D01*
X410166Y262257D01*
X409534Y262622D01*
X408829Y262811D01*
D02*
G37*
G36*
X563034Y259693D02*
X561996D01*
X560992Y259424D01*
X560093Y258905D01*
X559358Y258170D01*
X558839Y257271D01*
X558570Y256267D01*
Y255229D01*
X558839Y254225D01*
X559358Y253326D01*
X560093Y252591D01*
X560992Y252072D01*
X561996Y251803D01*
X563034D01*
X564038Y252072D01*
X564937Y252591D01*
X565672Y253326D01*
X566191Y254225D01*
X566460Y255229D01*
Y256267D01*
X566191Y257271D01*
X565672Y258170D01*
X564937Y258905D01*
X564038Y259424D01*
X563034Y259693D01*
D02*
G37*
G36*
X566445Y249684D02*
X558555D01*
Y241794D01*
X566445D01*
Y249684D01*
D02*
G37*
G36*
X442086Y237213D02*
X441378D01*
X440724Y236942D01*
X440224Y236441D01*
X439953Y235787D01*
Y235079D01*
X440224Y234425D01*
X440724Y233925D01*
X441378Y233653D01*
X442086D01*
X442740Y233925D01*
X443241Y234425D01*
X443512Y235079D01*
Y235787D01*
X443241Y236441D01*
X442740Y236942D01*
X442086Y237213D01*
D02*
G37*
G36*
X433031D02*
X432323D01*
X431669Y236942D01*
X431169Y236441D01*
X430898Y235787D01*
Y235079D01*
X431169Y234425D01*
X431669Y233925D01*
X432323Y233653D01*
X433031D01*
X433685Y233925D01*
X434186Y234425D01*
X434457Y235079D01*
Y235787D01*
X434186Y236441D01*
X433685Y236942D01*
X433031Y237213D01*
D02*
G37*
G36*
X423189D02*
X422481D01*
X421827Y236942D01*
X421326Y236441D01*
X421055Y235787D01*
Y235079D01*
X421326Y234425D01*
X421827Y233925D01*
X422481Y233653D01*
X423189D01*
X423843Y233925D01*
X424343Y234425D01*
X424614Y235079D01*
Y235787D01*
X424343Y236441D01*
X423843Y236942D01*
X423189Y237213D01*
D02*
G37*
G36*
X413740D02*
X413032D01*
X412378Y236942D01*
X411877Y236441D01*
X411606Y235787D01*
Y235079D01*
X411877Y234425D01*
X412378Y233925D01*
X413032Y233653D01*
X413740D01*
X414394Y233925D01*
X414894Y234425D01*
X415165Y235079D01*
Y235787D01*
X414894Y236441D01*
X414394Y236942D01*
X413740Y237213D01*
D02*
G37*
G36*
X490283Y237016D02*
X489244D01*
X488241Y236747D01*
X487342Y236228D01*
X486607Y235493D01*
X486088Y234594D01*
X485819Y233590D01*
Y232552D01*
X486088Y231548D01*
X486607Y230649D01*
X487342Y229914D01*
X488241Y229395D01*
X489244Y229126D01*
X490283D01*
X491286Y229395D01*
X492186Y229914D01*
X492920Y230649D01*
X493440Y231548D01*
X493709Y232552D01*
Y233590D01*
X493440Y234594D01*
X492920Y235493D01*
X492186Y236228D01*
X491286Y236747D01*
X490283Y237016D01*
D02*
G37*
G36*
X480283D02*
X479244D01*
X478241Y236747D01*
X477342Y236228D01*
X476607Y235493D01*
X476088Y234594D01*
X475819Y233590D01*
Y232552D01*
X476088Y231548D01*
X476607Y230649D01*
X477342Y229914D01*
X478241Y229395D01*
X479244Y229126D01*
X480283D01*
X481286Y229395D01*
X482186Y229914D01*
X482921Y230649D01*
X483440Y231548D01*
X483709Y232552D01*
Y233590D01*
X483440Y234594D01*
X482921Y235493D01*
X482186Y236228D01*
X481286Y236747D01*
X480283Y237016D01*
D02*
G37*
G36*
X470283D02*
X469244D01*
X468241Y236747D01*
X467342Y236228D01*
X466607Y235493D01*
X466088Y234594D01*
X465819Y233590D01*
Y232552D01*
X466088Y231548D01*
X466607Y230649D01*
X467342Y229914D01*
X468241Y229395D01*
X469244Y229126D01*
X470283D01*
X471286Y229395D01*
X472186Y229914D01*
X472921Y230649D01*
X473440Y231548D01*
X473709Y232552D01*
Y233590D01*
X473440Y234594D01*
X472921Y235493D01*
X472186Y236228D01*
X471286Y236747D01*
X470283Y237016D01*
D02*
G37*
G36*
X442086Y231307D02*
X441378D01*
X440724Y231036D01*
X440224Y230536D01*
X439953Y229882D01*
Y229174D01*
X440224Y228520D01*
X440724Y228019D01*
X441378Y227748D01*
X442086D01*
X442740Y228019D01*
X443241Y228520D01*
X443512Y229174D01*
Y229882D01*
X443241Y230536D01*
X442740Y231036D01*
X442086Y231307D01*
D02*
G37*
G36*
X433031D02*
X432323D01*
X431669Y231036D01*
X431169Y230536D01*
X430898Y229882D01*
Y229174D01*
X431169Y228520D01*
X431669Y228019D01*
X432323Y227748D01*
X433031D01*
X433685Y228019D01*
X434186Y228520D01*
X434457Y229174D01*
Y229882D01*
X434186Y230536D01*
X433685Y231036D01*
X433031Y231307D01*
D02*
G37*
G36*
X423189D02*
X422481D01*
X421827Y231036D01*
X421326Y230536D01*
X421055Y229882D01*
Y229174D01*
X421326Y228520D01*
X421827Y228019D01*
X422481Y227748D01*
X423189D01*
X423843Y228019D01*
X424343Y228520D01*
X424614Y229174D01*
Y229882D01*
X424343Y230536D01*
X423843Y231036D01*
X423189Y231307D01*
D02*
G37*
G36*
X442086Y225008D02*
X441378D01*
X440724Y224737D01*
X440224Y224236D01*
X439953Y223582D01*
Y222874D01*
X440224Y222220D01*
X440724Y221720D01*
X441378Y221449D01*
X442086D01*
X442740Y221720D01*
X443241Y222220D01*
X443512Y222874D01*
Y223582D01*
X443241Y224236D01*
X442740Y224737D01*
X442086Y225008D01*
D02*
G37*
G36*
X433031D02*
X432323D01*
X431669Y224737D01*
X431169Y224236D01*
X430898Y223582D01*
Y222874D01*
X431169Y222220D01*
X431669Y221720D01*
X432323Y221449D01*
X433031D01*
X433685Y221720D01*
X434186Y222220D01*
X434457Y222874D01*
Y223582D01*
X434186Y224236D01*
X433685Y224737D01*
X433031Y225008D01*
D02*
G37*
G36*
X562688Y232299D02*
X561328D01*
X559994Y232034D01*
X558737Y231513D01*
X557606Y230758D01*
X556644Y229796D01*
X555888Y228665D01*
X555368Y227408D01*
X555102Y226074D01*
Y224714D01*
X555368Y223379D01*
X555888Y222123D01*
X556644Y220992D01*
X557606Y220030D01*
X558737Y219274D01*
X559994Y218754D01*
X561328Y218488D01*
X562688D01*
X564022Y218754D01*
X565279Y219274D01*
X566410Y220030D01*
X567372Y220992D01*
X568127Y222123D01*
X568648Y223379D01*
X568913Y224714D01*
Y226074D01*
X568648Y227408D01*
X568127Y228665D01*
X567372Y229796D01*
X566410Y230758D01*
X565279Y231513D01*
X564022Y232034D01*
X562688Y232299D01*
D02*
G37*
G36*
X402649Y232102D02*
X401288D01*
X399954Y231837D01*
X398697Y231316D01*
X397567Y230561D01*
X396605Y229599D01*
X395849Y228468D01*
X395328Y227211D01*
X395063Y225877D01*
Y224517D01*
X395328Y223183D01*
X395849Y221926D01*
X396605Y220795D01*
X397567Y219833D01*
X398697Y219077D01*
X399954Y218557D01*
X401288Y218291D01*
X402649D01*
X403983Y218557D01*
X405239Y219077D01*
X406370Y219833D01*
X407332Y220795D01*
X408088Y221926D01*
X408609Y223183D01*
X408874Y224517D01*
Y225877D01*
X408609Y227211D01*
X408088Y228468D01*
X407332Y229599D01*
X406370Y230561D01*
X405239Y231316D01*
X403983Y231837D01*
X402649Y232102D01*
D02*
G37*
G36*
X460441Y338591D02*
X452157D01*
Y336947D01*
X436031D01*
Y338591D01*
X427748D01*
Y333063D01*
X436031D01*
Y334707D01*
X452157D01*
Y333063D01*
X460441D01*
Y338591D01*
D02*
G37*
G36*
X426189Y338000D02*
X417906D01*
Y332866D01*
X420928D01*
Y331844D01*
X421013Y331416D01*
X421256Y331052D01*
X425657Y326651D01*
X425466Y326189D01*
X421868D01*
X421654Y326231D01*
X418241D01*
X416347Y328126D01*
Y330126D01*
X414421D01*
Y333334D01*
X414953Y333866D01*
X415074Y334048D01*
X415228Y334202D01*
X415312Y334404D01*
X415433Y334585D01*
X415476Y334799D01*
X415559Y335001D01*
Y335219D01*
X415602Y335433D01*
X415559Y335647D01*
Y335865D01*
X415476Y336067D01*
X415433Y336281D01*
X415312Y336462D01*
X415228Y336664D01*
X415074Y336818D01*
X414953Y337000D01*
X414771Y337121D01*
X414617Y337276D01*
X414415Y337359D01*
X414234Y337480D01*
X414020Y337523D01*
X413818Y337606D01*
X413600D01*
X413386Y337649D01*
X413172Y337606D01*
X412954D01*
X412752Y337523D01*
X412538Y337480D01*
X412356Y337359D01*
X412155Y337276D01*
X412001Y337121D01*
X411819Y337000D01*
X410638Y335819D01*
X410158Y335100D01*
X409989Y334252D01*
Y330126D01*
X408063D01*
Y324992D01*
X413213D01*
X415756Y322448D01*
X416475Y321968D01*
X417323Y321799D01*
X417906D01*
Y321055D01*
X425237D01*
X425354Y320555D01*
X425102Y320386D01*
X417253Y312537D01*
X406842D01*
X404255Y315124D01*
X404463Y315485D01*
X404732Y316489D01*
Y317527D01*
X404463Y318531D01*
X403944Y319430D01*
X403210Y320165D01*
X402310Y320684D01*
X401307Y320953D01*
X400268D01*
X399265Y320684D01*
X398365Y320165D01*
X397631Y319430D01*
X397111Y318531D01*
X396843Y317527D01*
Y316489D01*
X397111Y315485D01*
X397631Y314586D01*
X398365Y313851D01*
X399265Y313332D01*
X400268Y313063D01*
X401307D01*
X402310Y313332D01*
X402671Y313540D01*
X405586Y310625D01*
X405949Y310383D01*
X406378Y310297D01*
X417717D01*
X418145Y310383D01*
X418508Y310625D01*
X424984Y317101D01*
X425484Y316894D01*
Y309244D01*
X431208D01*
Y317527D01*
X426118D01*
X425910Y318027D01*
X426358Y318475D01*
X430224D01*
X430333Y318496D01*
X433447D01*
X433555Y318475D01*
X434764D01*
X437295Y315944D01*
Y309244D01*
X443019D01*
Y315022D01*
X444273D01*
X444661Y314633D01*
X445315Y314362D01*
X446023D01*
X446677Y314633D01*
X447178Y315134D01*
X447449Y315788D01*
Y316496D01*
X447178Y317150D01*
X446677Y317650D01*
X446023Y317921D01*
X445315D01*
X444661Y317650D01*
X444273Y317262D01*
X443019D01*
Y317527D01*
X438879D01*
X436728Y319678D01*
X436920Y320140D01*
X452157D01*
Y318496D01*
X460441D01*
Y324024D01*
X452157D01*
Y322380D01*
X436031D01*
Y324024D01*
X429966D01*
Y325045D01*
X429881Y325474D01*
X429638Y325837D01*
X423168Y332308D01*
Y332866D01*
X426189D01*
Y338000D01*
D02*
G37*
G36*
X416347Y318315D02*
X408063D01*
Y313181D01*
X416347D01*
Y318315D01*
D02*
G37*
G36*
X453897Y313984D02*
X453189D01*
X452535Y313713D01*
X452035Y313213D01*
X451764Y312559D01*
Y311851D01*
X452035Y311197D01*
X452535Y310696D01*
X453189Y310425D01*
X453897D01*
X454551Y310696D01*
X455052Y311197D01*
X455323Y311851D01*
Y312559D01*
X455052Y313213D01*
X454551Y313713D01*
X453897Y313984D01*
D02*
G37*
G36*
X501535Y320677D02*
X500827D01*
X500173Y320406D01*
X499673Y319906D01*
X499402Y319252D01*
Y318544D01*
X499673Y317890D01*
X500173Y317389D01*
X500827Y317118D01*
X501535D01*
X502189Y317389D01*
X502690Y317890D01*
X502961Y318544D01*
Y319252D01*
X502690Y319906D01*
X502189Y320406D01*
X501535Y320677D01*
D02*
G37*
G36*
X469703Y305515D02*
X463388D01*
Y299987D01*
X469703D01*
Y305515D01*
D02*
G37*
G36*
X445630Y302173D02*
X444922D01*
X444268Y301902D01*
X443767Y301402D01*
X443496Y300748D01*
Y300040D01*
X443767Y299386D01*
X444268Y298885D01*
X444922Y298614D01*
X445630D01*
X446284Y298885D01*
X446784Y299386D01*
X447055Y300040D01*
Y300748D01*
X446784Y301402D01*
X446284Y301902D01*
X445630Y302173D01*
D02*
G37*
G36*
X458669Y302764D02*
X451173D01*
Y296055D01*
X458669D01*
Y302764D01*
D02*
G37*
G36*
X532637Y288787D02*
X531929D01*
X531275Y288516D01*
X530775Y288016D01*
X530504Y287362D01*
Y286654D01*
X530775Y286000D01*
X531275Y285499D01*
X531929Y285228D01*
X532637D01*
X533291Y285499D01*
X533792Y286000D01*
X534063Y286654D01*
Y287362D01*
X533792Y288016D01*
X533291Y288516D01*
X532637Y288787D01*
D02*
G37*
G36*
X520433Y267528D02*
X519725D01*
X519071Y267257D01*
X518570Y266756D01*
X518299Y266102D01*
Y265394D01*
X518570Y264740D01*
X519071Y264239D01*
X519725Y263968D01*
X520433D01*
X521087Y264239D01*
X521587Y264740D01*
X521858Y265394D01*
Y266102D01*
X521587Y266756D01*
X521087Y267257D01*
X520433Y267528D01*
D02*
G37*
G36*
X489870Y253354D02*
X484146D01*
Y245071D01*
X489870D01*
Y253354D01*
D02*
G37*
G36*
X495630Y245874D02*
X494922D01*
X494268Y245603D01*
X493767Y245103D01*
X493496Y244448D01*
Y243741D01*
X493767Y243087D01*
X494268Y242586D01*
X494922Y242315D01*
X495630D01*
X496284Y242586D01*
X496784Y243087D01*
X497055Y243741D01*
Y244448D01*
X496784Y245103D01*
X496284Y245603D01*
X495630Y245874D01*
D02*
G37*
G36*
X542480Y243118D02*
X541772D01*
X541118Y242847D01*
X540617Y242347D01*
X540346Y241692D01*
Y240985D01*
X540617Y240331D01*
X541118Y239830D01*
X541772Y239559D01*
X542480D01*
X543134Y239830D01*
X543635Y240331D01*
X543905Y240985D01*
Y241692D01*
X543635Y242347D01*
X543134Y242847D01*
X542480Y243118D01*
D02*
G37*
G36*
X530275Y239181D02*
X529567D01*
X528913Y238910D01*
X528413Y238410D01*
X528142Y237755D01*
Y237048D01*
X528413Y236394D01*
X528913Y235893D01*
X529567Y235622D01*
X530275D01*
X530929Y235893D01*
X531430Y236394D01*
X531701Y237048D01*
Y237755D01*
X531430Y238410D01*
X530929Y238910D01*
X530275Y239181D01*
D02*
G37*
G36*
X539082Y240362D02*
X533358D01*
Y232079D01*
X539082D01*
Y240362D01*
D02*
G37*
%LPD*%
D11*
X431890Y335827D02*
X456299D01*
X490136Y304331D02*
X500541D01*
X487660Y306807D02*
X490136Y304331D01*
X486614Y307087D02*
X486705Y306996D01*
X487102D02*
X487290Y306807D01*
X511721Y280709D02*
Y282746D01*
X487290Y306807D02*
X487660D01*
X486705Y306996D02*
X487102D01*
X550984Y256890D02*
X551841Y256033D01*
X503297Y307087D02*
X508858D01*
X500541Y304331D02*
X503297Y307087D01*
X489897Y300133D02*
X490158Y300394D01*
X489897Y297792D02*
Y300133D01*
X487471Y295366D02*
X489897Y297792D01*
X484441Y295366D02*
X487471D01*
X484350Y295276D02*
X484441Y295366D01*
X428847Y322925D02*
Y325045D01*
Y322925D02*
X430512Y321260D01*
X422048Y331844D02*
Y335433D01*
Y331844D02*
X428847Y325045D01*
X430512Y321260D02*
X431890D01*
X537796Y287402D02*
X545669D01*
X532950Y282556D02*
X537796Y287402D01*
X532950Y271655D02*
Y282556D01*
Y271655D02*
X533457Y271148D01*
X532443Y272161D02*
X532950Y271655D01*
X550000Y291339D02*
X551968Y289370D01*
X531616Y291339D02*
X550000D01*
X551968Y267717D02*
Y289370D01*
X520079Y279801D02*
X531616Y291339D01*
X520739Y285524D02*
X523361Y288147D01*
X517709Y285524D02*
X520739D01*
X523361Y288147D02*
Y289897D01*
X520079Y275197D02*
Y279801D01*
X523361Y289897D02*
X523622Y290158D01*
X517618Y285433D02*
X517709Y285524D01*
X485326Y318610D02*
X491647D01*
X493245Y317011D01*
X496944D02*
X497941Y316014D01*
Y312984D02*
X498032Y312894D01*
X483858Y320078D02*
Y321653D01*
Y320078D02*
X485326Y318610D01*
X493245Y317011D02*
X496944D01*
X497941Y312984D02*
Y316014D01*
X551841Y256033D02*
X551968Y255906D01*
X547244Y263386D02*
Y268898D01*
X551841Y256033D02*
Y258789D01*
X547244Y263386D02*
X551841Y258789D01*
X545669Y270473D02*
X547244Y268898D01*
X545669Y270473D02*
Y275591D01*
X544095Y256890D02*
X550984D01*
X409055Y340945D02*
X463779D01*
X477165Y327559D01*
X405905Y337795D02*
X409055Y340945D01*
X400787Y337008D02*
X408268Y344488D01*
X463386D01*
X478346Y329528D01*
X528137Y322047D02*
X530610D01*
X525774Y319685D02*
X528137Y322047D01*
X525591Y319685D02*
X525774D01*
X512992Y307087D02*
X517618D01*
X512992D02*
X516142Y310236D01*
X508858Y307087D02*
X512992D01*
X498819Y291339D02*
X503128D01*
X493110D02*
X498819D01*
X491929Y284449D02*
X498819Y291339D01*
X489982Y284449D02*
X491929D01*
X483092Y277559D02*
X489982Y284449D01*
X476772Y277559D02*
X483092D01*
X484350Y285433D02*
X484441Y285524D01*
X487886D02*
X490158Y287795D01*
X484441Y285524D02*
X487886D01*
X511902Y280709D02*
X516535D01*
X511811Y280618D02*
X511902Y280709D01*
X511811Y279626D02*
Y280618D01*
X473988Y320838D02*
X477137D01*
X462718Y315748D02*
X468898D01*
X473988Y320838D01*
X477137D02*
X477166Y320866D01*
X454057Y307087D02*
X462718Y315748D01*
X423819Y303150D02*
X427756Y307087D01*
X454057D01*
X423819Y301378D02*
Y303150D01*
X493110Y291339D02*
X508858Y307087D01*
X484350Y291339D02*
X493110D01*
X503128D02*
X511721Y282746D01*
X478937Y253421D02*
Y255906D01*
X477772Y252256D02*
X478937Y253421D01*
X476961Y252256D02*
X477772D01*
X475197Y250492D02*
X476961Y252256D01*
X475197Y249213D02*
Y250492D01*
X473630Y253945D02*
Y255716D01*
X473819Y255906D01*
X473622Y253937D02*
X473630Y253945D01*
X473622Y250787D02*
Y253937D01*
Y250787D02*
X475197Y249213D01*
X552756Y240551D02*
Y249606D01*
X549795Y238988D02*
X551192D01*
X548031Y236220D02*
Y237224D01*
X549795Y238988D01*
X551192D02*
X552756Y240551D01*
X551181Y251181D02*
X552756Y249606D01*
X546063Y251181D02*
X551181D01*
X544095Y253150D02*
Y256890D01*
Y253150D02*
X546063Y251181D01*
X517745Y246092D02*
X520895D01*
X525591Y250787D02*
X532283D01*
X520895Y246092D02*
X525591Y250787D01*
X517717Y246063D02*
X517745Y246092D01*
X533457Y251961D02*
Y254126D01*
X532283Y250787D02*
X533457Y251961D01*
Y254126D02*
X533465Y254134D01*
X484350Y307087D02*
X486614D01*
X490158Y310630D02*
Y312894D01*
X486614Y307087D02*
X490158Y310630D01*
X484350Y307087D02*
Y312402D01*
X477166Y319587D02*
Y320866D01*
Y319587D02*
X484350Y312402D01*
X418898Y368504D02*
X440551Y346850D01*
X464961D01*
X400787Y317008D02*
X406378Y311417D01*
X417717D01*
X425894Y319595D01*
X430224D01*
X464961Y346850D02*
X479528Y332283D01*
X432480Y299606D02*
X449803Y282283D01*
X479408D01*
X489844Y265354D02*
X498032Y273542D01*
X489764Y265354D02*
X489844D01*
X498032Y273542D02*
Y279626D01*
X482874Y270079D02*
X490158Y277362D01*
X476378Y270079D02*
X482874D01*
X472441Y266142D02*
X476378Y270079D01*
X490158Y277362D02*
Y279626D01*
X465881Y271127D02*
X466142Y270866D01*
X464700Y271127D02*
X465881D01*
X464173Y271654D02*
X464700Y271127D01*
X481496Y257087D02*
Y258268D01*
X480059Y258524D02*
X481496Y257087D01*
X470610Y258524D02*
X480059D01*
X461811Y267323D02*
X470610Y258524D01*
X481307Y261228D02*
Y262016D01*
X481496Y262205D01*
X480201Y260122D02*
X481307Y261228D01*
X472555Y260122D02*
X480201D01*
X463386Y269291D02*
X472555Y260122D01*
X443110Y267323D02*
X461811D01*
X410827Y299606D02*
X443110Y267323D01*
X410827Y299606D02*
Y301378D01*
X449803Y269291D02*
X463386D01*
X419488Y299606D02*
X449803Y269291D01*
X456102Y271654D02*
X464173D01*
X428150Y299606D02*
X456102Y271654D01*
X419488Y299606D02*
Y301378D01*
X428150Y299606D02*
Y301378D01*
X432480Y299606D02*
Y301378D01*
X479408Y282283D02*
X480360Y283236D01*
Y286441D01*
X481230Y287311D01*
X484260D01*
X484350Y287402D01*
X477166Y287008D02*
X478293Y288136D01*
Y291415D01*
X479921Y293043D01*
X498425Y327559D02*
X508559Y317425D01*
X510309D01*
X499606Y329528D02*
X509449Y319685D01*
X512598D01*
X517709Y299303D02*
X520739D01*
X517618Y299213D02*
X517709Y299303D01*
X520739D02*
X523622Y302187D01*
X514543Y321284D02*
X523622Y312205D01*
Y302187D02*
Y312205D01*
X512598Y319685D02*
X521654Y310630D01*
X520739Y303240D02*
X521654Y304155D01*
Y310630D01*
X511000Y321284D02*
X514543D01*
X500000Y332283D02*
X511000Y321284D01*
X478346Y329528D02*
X499606D01*
X479528Y332283D02*
X500000D01*
X517618Y303150D02*
X517709Y303240D01*
X520739D01*
X511721Y312984D02*
Y316014D01*
X510309Y317425D02*
X511721Y316014D01*
X477165Y327559D02*
X498425D01*
X511721Y312984D02*
X511811Y312894D01*
X405905Y333141D02*
Y337795D01*
X404926Y332161D02*
X405905Y333141D01*
X398780Y332161D02*
X404926D01*
X395941Y335000D02*
X398780Y332161D01*
X395941Y335000D02*
Y342161D01*
X400787Y347008D01*
X440157Y314378D02*
Y314665D01*
X441921Y316142D02*
X445669D01*
X440157Y313386D02*
Y314378D01*
X441921Y316142D01*
X431890Y321260D02*
X456299D01*
X433555Y319595D02*
X435228D01*
X440157Y314665D01*
X431890Y321260D02*
X433555Y319595D01*
X430224D02*
X431890Y321260D01*
X563991Y308662D02*
Y309536D01*
X552574Y297244D02*
X563991Y308662D01*
X517618Y297244D02*
X552574D01*
X517618Y295276D02*
X559731D01*
X563991Y299536D01*
X531488Y270079D02*
X531496Y270071D01*
Y269488D02*
Y270071D01*
X526772Y270079D02*
X531488D01*
X524670Y269552D02*
X526245D01*
X526772Y270079D01*
X524409Y269291D02*
X524670Y269552D01*
X518390Y272161D02*
X532443D01*
X517323Y273228D02*
X518390Y272161D01*
X533457Y269496D02*
Y271148D01*
X508268Y273228D02*
X517323D01*
X507965Y276506D02*
X509273Y275197D01*
X520079D01*
X505996Y275500D02*
X508268Y273228D01*
X505996Y275500D02*
Y279535D01*
X507965Y276506D02*
Y279535D01*
X507874Y279626D02*
X507965Y279535D01*
X533457Y269496D02*
X533465Y269488D01*
X505905Y279626D02*
X505996Y279535D01*
X536417Y246063D02*
X537402Y247047D01*
Y254134D01*
X539370Y269488D02*
Y272835D01*
X539370Y269488D02*
X539370Y269488D01*
X538772Y273433D02*
Y275796D01*
Y273433D02*
X539370Y272835D01*
X537008Y277559D02*
X538772Y275796D01*
X479921Y265111D02*
Y265354D01*
X478949Y264139D02*
X479921Y265111D01*
X478783Y268035D02*
X483565D01*
X476378Y265630D02*
X478783Y268035D01*
X483565D02*
X492035Y276506D01*
X478949Y262217D02*
Y264139D01*
X478937Y262205D02*
X478949Y262217D01*
X476281Y262302D02*
Y265462D01*
Y262302D02*
X476378Y262205D01*
X476281Y265462D02*
X476378Y265560D01*
Y265630D01*
X481496Y262205D02*
X481685Y262394D01*
Y262689D02*
X482979Y263983D01*
X481685Y262394D02*
Y262689D01*
X482979Y265189D02*
X494004Y276214D01*
X482979Y263983D02*
Y265189D01*
X495972Y275922D02*
Y279535D01*
X496063Y279626D01*
X494004Y279535D02*
X494095Y279626D01*
X481496Y258268D02*
X485402Y262174D01*
X494004Y276214D02*
Y279535D01*
X485402Y265352D02*
X495972Y275922D01*
X485402Y262174D02*
Y265352D01*
X492035Y276506D02*
Y279535D01*
X492126Y279626D01*
X484260Y297153D02*
X484350Y297244D01*
X480618Y297153D02*
X484260D01*
X479921Y296457D02*
X480618Y297153D01*
X479921Y293043D02*
Y296457D01*
X467000Y295242D02*
X472191Y290051D01*
X475402D01*
X477166Y288288D01*
X466607Y295242D02*
X467000D01*
X477166Y287008D02*
Y288288D01*
X465354Y309934D02*
Y311023D01*
X473542Y304416D02*
Y304810D01*
X467118Y308171D02*
X470181D01*
X475207Y302751D02*
X475994D01*
X473542Y304416D02*
X475207Y302751D01*
X470181Y308171D02*
X473542Y304810D01*
X465354Y309934D02*
X467118Y308171D01*
X479532Y299213D02*
X484350D01*
X475994Y302751D02*
X479532Y299213D01*
D13*
X393701Y216535D02*
Y393701D01*
Y216535D02*
X570866D01*
Y393701D01*
X393701D02*
X570866D01*
D16*
X545669Y287402D02*
D03*
Y275591D02*
D03*
X551968Y267717D02*
D03*
Y255906D02*
D03*
X422048Y323622D02*
D03*
Y335433D02*
D03*
X412205Y315748D02*
D03*
Y327559D02*
D03*
D17*
X436811Y301378D02*
D03*
X432480D02*
D03*
X428150D02*
D03*
X423819D02*
D03*
X419488D02*
D03*
X415158D02*
D03*
X410827D02*
D03*
X406496D02*
D03*
X402165D02*
D03*
D18*
X397441Y299016D02*
D03*
D19*
Y261614D02*
D03*
X458465Y261614D02*
D03*
D20*
X454921Y299410D02*
D03*
D21*
X440157Y313386D02*
D03*
X428346D02*
D03*
X525197Y277559D02*
D03*
X537008D02*
D03*
X548228Y246063D02*
D03*
X536417D02*
D03*
X548031Y236220D02*
D03*
X536220D02*
D03*
X517717Y246063D02*
D03*
X529528D02*
D03*
X514567Y327166D02*
D03*
X526378D02*
D03*
X465355Y320866D02*
D03*
X477166D02*
D03*
X464961Y277559D02*
D03*
X476772D02*
D03*
X501181Y258661D02*
D03*
X489370D02*
D03*
X475197Y249213D02*
D03*
X487008D02*
D03*
X513779Y268110D02*
D03*
X501968D02*
D03*
X464961Y287008D02*
D03*
X476772D02*
D03*
X477165Y311023D02*
D03*
X465354D02*
D03*
D22*
X456299Y321260D02*
D03*
X431890D02*
D03*
Y335827D02*
D03*
X456299D02*
D03*
D23*
X533071Y377166D02*
D03*
D03*
Y387480D02*
D03*
X532283Y364960D02*
D03*
D03*
Y354645D02*
D03*
D24*
X495331Y378346D02*
D03*
Y348425D02*
D03*
D25*
X521654Y387323D02*
D03*
Y369370D02*
D03*
Y357402D02*
D03*
Y339449D02*
D03*
D26*
X475197Y381890D02*
D03*
Y370079D02*
D03*
X531890Y301969D02*
D03*
Y313780D02*
D03*
X477559Y355512D02*
D03*
Y343701D02*
D03*
D27*
X528740Y266732D02*
D03*
Y264764D02*
D03*
Y262795D02*
D03*
Y260827D02*
D03*
Y258858D02*
D03*
Y256890D02*
D03*
X544095D02*
D03*
Y258858D02*
D03*
Y260827D02*
D03*
Y262795D02*
D03*
Y264764D02*
D03*
Y266732D02*
D03*
D28*
X531496Y254134D02*
D03*
X533465D02*
D03*
X535433D02*
D03*
X537402D02*
D03*
X539370D02*
D03*
X541339D02*
D03*
Y269488D02*
D03*
X539370D02*
D03*
X537402D02*
D03*
X535433D02*
D03*
X533465D02*
D03*
X531496D02*
D03*
D29*
X536417Y261811D02*
D03*
D30*
X466546Y302751D02*
D03*
X475601D02*
D03*
X466607Y295242D02*
D03*
X475619Y295306D02*
D03*
D31*
X483858Y322047D02*
D03*
X495669D02*
D03*
D32*
X481496Y255906D02*
D03*
X478937D02*
D03*
X473819D02*
D03*
X481496Y262205D02*
D03*
X478937D02*
D03*
X476378D02*
D03*
Y255906D02*
D03*
X473819Y262205D02*
D03*
D33*
X484350Y307087D02*
D03*
Y305118D02*
D03*
Y303150D02*
D03*
Y301181D02*
D03*
Y299213D02*
D03*
Y297244D02*
D03*
Y295276D02*
D03*
Y293307D02*
D03*
Y291339D02*
D03*
Y289370D02*
D03*
Y287402D02*
D03*
X517618Y307087D02*
D03*
Y305118D02*
D03*
Y303150D02*
D03*
Y301181D02*
D03*
Y299213D02*
D03*
Y297244D02*
D03*
Y295276D02*
D03*
Y293307D02*
D03*
Y291339D02*
D03*
Y289370D02*
D03*
Y287402D02*
D03*
Y285433D02*
D03*
X484350D02*
D03*
D34*
X492126Y279626D02*
D03*
X494095D02*
D03*
X496063D02*
D03*
X498032D02*
D03*
X500000D02*
D03*
X501968D02*
D03*
X503937D02*
D03*
X505905D02*
D03*
X507874D02*
D03*
X509842D02*
D03*
X511811D02*
D03*
X509842Y312894D02*
D03*
X507874D02*
D03*
X505905D02*
D03*
X503937D02*
D03*
X501968D02*
D03*
X500000D02*
D03*
X498032D02*
D03*
X496063D02*
D03*
X494095D02*
D03*
X492126D02*
D03*
X490158D02*
D03*
Y279626D02*
D03*
X511811Y312894D02*
D03*
D57*
X514646Y339449D02*
X530630D01*
X517717Y244784D02*
Y246063D01*
Y244095D02*
Y244784D01*
Y244095D02*
X518252D01*
X412205Y334252D02*
X413386Y335433D01*
X412205Y327559D02*
Y334252D01*
X413779Y327559D02*
X417323Y324015D01*
X421654D01*
X412205Y327559D02*
X413779D01*
X421654Y324015D02*
X422048Y323622D01*
X461811Y375590D02*
X492575D01*
X413386D02*
X461811D01*
X477166Y320866D02*
Y322146D01*
X470178Y329134D02*
X477166Y322146D01*
X468504Y329134D02*
X470178D01*
X461811Y353150D02*
X462598Y352362D01*
X461811Y353150D02*
Y375590D01*
X527460Y325197D02*
X530610Y322047D01*
X531890Y320768D01*
Y313780D02*
Y320768D01*
X527067Y325197D02*
X527460D01*
X526378Y325886D02*
X527067Y325197D01*
X526378Y325886D02*
Y327166D01*
X514567Y258661D02*
X515354Y259449D01*
X501181Y258661D02*
X514567D01*
X482094Y241036D02*
X491792D01*
X475197Y247933D02*
X482094Y241036D01*
X491792D02*
X499772Y233056D01*
X475197Y247933D02*
Y249213D01*
X501575Y267716D02*
X501968Y268110D01*
X501181Y258661D02*
X501575Y259055D01*
Y267716D01*
X499772Y255973D02*
X501181Y257382D01*
X499772Y233056D02*
Y255973D01*
X501181Y257382D02*
Y258661D01*
X518252Y240409D02*
Y244095D01*
X529921Y228740D02*
X541831D01*
X518252Y240409D02*
X529921Y228740D01*
X517028Y244095D02*
X517717Y244784D01*
X541831Y228740D02*
X548031Y234941D01*
Y236220D01*
X510811Y244095D02*
X517028D01*
X499772Y233056D02*
X510811Y244095D01*
X407480Y369685D02*
X413386Y375590D01*
X492575D02*
X495331Y378346D01*
X400802Y357016D02*
X407480Y363694D01*
Y369685D01*
X512520Y357402D02*
X523917D01*
X507717Y362205D02*
X512520Y357402D01*
X484350Y362205D02*
X507717D01*
X476476Y370079D02*
X484350Y362205D01*
X475197Y370079D02*
X476476D01*
X511024Y335827D02*
X514646Y339449D01*
X481373Y335827D02*
X511024D01*
X479528Y337672D02*
X481373Y335827D01*
X479528Y337672D02*
Y343012D01*
X478839Y343701D02*
X479528Y343012D01*
X477559Y343701D02*
X478839D01*
X530630Y339449D02*
X542339Y327740D01*
X561722D01*
X563779Y329798D01*
Y361614D01*
X555709Y369685D02*
X563779Y361614D01*
X495331Y378346D02*
X497890D01*
X533858Y346063D02*
X545669Y334252D01*
X529528Y346063D02*
X533858D01*
X524213Y351378D02*
X529528Y346063D01*
X545669Y334252D02*
X555512D01*
X524213Y351378D02*
Y357106D01*
X523917Y357402D02*
X524213Y357106D01*
Y383661D02*
X527054Y380820D01*
X529337D01*
X524213Y383661D02*
Y387028D01*
X523917Y387323D02*
X524213Y387028D01*
X521654Y387323D02*
X523917D01*
X529337Y380820D02*
X531024Y379134D01*
X532224D01*
X533071Y378288D01*
Y377166D02*
Y378288D01*
Y377166D02*
X548228D01*
X555709Y369685D01*
X532283Y364626D02*
Y364960D01*
X512457Y363779D02*
X531437D01*
X497890Y378346D02*
X512457Y363779D01*
X531437D02*
X532283Y364626D01*
D58*
X555709Y383465D02*
D03*
Y369685D02*
D03*
X555512Y348031D02*
D03*
Y334252D02*
D03*
D59*
X401968Y385827D02*
D03*
Y225197D02*
D03*
X562008Y225394D02*
D03*
D60*
X469764Y233071D02*
D03*
X479764D02*
D03*
X489764D02*
D03*
X400787Y347008D02*
D03*
Y337008D02*
D03*
Y327008D02*
D03*
Y317008D02*
D03*
X448819Y368504D02*
D03*
X418898D02*
D03*
X562417Y309536D02*
D03*
Y299536D02*
D03*
Y289536D02*
D03*
X562515Y255748D02*
D03*
Y265748D02*
D03*
D61*
X499772Y233056D02*
D03*
D62*
X400802Y357016D02*
D03*
X562402Y279528D02*
D03*
X562500Y245739D02*
D03*
D63*
X552756Y303937D02*
D03*
X546850D02*
D03*
Y311024D02*
D03*
X540158D02*
D03*
X552756Y317717D02*
D03*
X546850D02*
D03*
X540158D02*
D03*
X509449Y300394D02*
D03*
X495276Y307087D02*
D03*
X491732Y294882D02*
D03*
X490158Y300394D02*
D03*
X453543Y312205D02*
D03*
X445276Y300394D02*
D03*
X467323Y358661D02*
D03*
X462992Y382283D02*
D03*
X527559Y334252D02*
D03*
X508661Y329921D02*
D03*
X501181Y318898D02*
D03*
X519685Y376378D02*
D03*
X538583Y351181D02*
D03*
X542126Y241339D02*
D03*
X554331Y262205D02*
D03*
X554724Y291339D02*
D03*
X532283Y287008D02*
D03*
X529921Y237402D02*
D03*
X520079Y265748D02*
D03*
X495276Y244094D02*
D03*
X422835Y229528D02*
D03*
X432677Y223228D02*
D03*
Y229528D02*
D03*
X441732Y223228D02*
D03*
Y229528D02*
D03*
X413386Y235433D02*
D03*
X422835D02*
D03*
X432677D02*
D03*
X441732D02*
D03*
X523622Y290158D02*
D03*
X525591Y319685D02*
D03*
X516142Y310236D02*
D03*
X490158Y287795D02*
D03*
X489764Y265354D02*
D03*
X472441Y266142D02*
D03*
X466142Y270866D02*
D03*
X445669Y316142D02*
D03*
X524409Y269291D02*
D03*
X520079Y275197D02*
D03*
X479921Y265354D02*
D03*
D64*
X413386Y335433D02*
D03*
X468504Y329134D02*
D03*
X462598Y352362D02*
D03*
X516535Y280709D02*
D03*
X515354Y259449D02*
D03*
M02*
