G04*
G04 #@! TF.GenerationSoftware,Altium Limited,Altium Designer,21.6.1 (37)*
G04*
G04 Layer_Color=8421504*
%FSLAX25Y25*%
%MOIN*%
G70*
G04*
G04 #@! TF.SameCoordinates,5AA223CE-A3B5-4ABD-9865-E1F73ECA8A72*
G04*
G04*
G04 #@! TF.FilePolarity,Positive*
G04*
G01*
G75*
%ADD16R,0.07087X0.03937*%
%ADD17R,0.02756X0.06299*%
%ADD18R,0.04724X0.05512*%
%ADD19R,0.04724X0.08661*%
%ADD20R,0.06299X0.05512*%
%ADD21R,0.04528X0.07087*%
%ADD22R,0.07087X0.04331*%
%ADD23R,0.04842X0.07087*%
%ADD24R,0.24410X0.19291*%
%ADD25R,0.08268X0.03740*%
%ADD26R,0.07087X0.04528*%
%ADD27R,0.03150X0.00984*%
%ADD28R,0.00984X0.03150*%
%ADD29R,0.10630X0.10236*%
%ADD30R,0.05118X0.04331*%
%ADD31R,0.03937X0.07087*%
%ADD32R,0.01378X0.01968*%
%ADD33R,0.05709X0.01181*%
%ADD34R,0.01181X0.05709*%
D16*
X545669Y287402D02*
D03*
Y275591D02*
D03*
X551968Y267717D02*
D03*
Y255906D02*
D03*
X422048Y323622D02*
D03*
Y335433D02*
D03*
X412205Y315748D02*
D03*
Y327559D02*
D03*
D17*
X436811Y301378D02*
D03*
X432480D02*
D03*
X428150D02*
D03*
X423819D02*
D03*
X419488D02*
D03*
X415158D02*
D03*
X410827D02*
D03*
X406496D02*
D03*
X402165D02*
D03*
D18*
X397441Y299016D02*
D03*
D19*
Y261614D02*
D03*
X458465Y261614D02*
D03*
D20*
X454921Y299410D02*
D03*
D21*
X440157Y313386D02*
D03*
X428346D02*
D03*
X525197Y277559D02*
D03*
X537008D02*
D03*
X548228Y246063D02*
D03*
X536417D02*
D03*
X548031Y236220D02*
D03*
X536220D02*
D03*
X517717Y246063D02*
D03*
X529528D02*
D03*
X514567Y327166D02*
D03*
X526378D02*
D03*
X465355Y320866D02*
D03*
X477166D02*
D03*
X464961Y277559D02*
D03*
X476772D02*
D03*
X501181Y258661D02*
D03*
X489370D02*
D03*
X475197Y249213D02*
D03*
X487008D02*
D03*
X513779Y268110D02*
D03*
X501968D02*
D03*
X464961Y287008D02*
D03*
X476772D02*
D03*
X477165Y311023D02*
D03*
X465354D02*
D03*
D22*
X456299Y321260D02*
D03*
X431890D02*
D03*
Y335827D02*
D03*
X456299D02*
D03*
D23*
X533071Y377166D02*
D03*
D03*
Y387480D02*
D03*
X532283Y364960D02*
D03*
D03*
Y354645D02*
D03*
D24*
X495331Y378346D02*
D03*
Y348425D02*
D03*
D25*
X521654Y387323D02*
D03*
Y369370D02*
D03*
Y357402D02*
D03*
Y339449D02*
D03*
D26*
X475197Y381890D02*
D03*
Y370079D02*
D03*
X531890Y301969D02*
D03*
Y313780D02*
D03*
X477559Y355512D02*
D03*
Y343701D02*
D03*
D27*
X528740Y266732D02*
D03*
Y264764D02*
D03*
Y262795D02*
D03*
Y260827D02*
D03*
Y258858D02*
D03*
Y256890D02*
D03*
X544095D02*
D03*
Y258858D02*
D03*
Y260827D02*
D03*
Y262795D02*
D03*
Y264764D02*
D03*
Y266732D02*
D03*
D28*
X531496Y254134D02*
D03*
X533465D02*
D03*
X535433D02*
D03*
X537402D02*
D03*
X539370D02*
D03*
X541339D02*
D03*
Y269488D02*
D03*
X539370D02*
D03*
X537402D02*
D03*
X535433D02*
D03*
X533465D02*
D03*
X531496D02*
D03*
D29*
X536417Y261811D02*
D03*
D30*
X466546Y302751D02*
D03*
X475601D02*
D03*
X466607Y295242D02*
D03*
X475619Y295306D02*
D03*
D31*
X483858Y322047D02*
D03*
X495669D02*
D03*
D32*
X481496Y255906D02*
D03*
X478937D02*
D03*
X473819D02*
D03*
X481496Y262205D02*
D03*
X478937D02*
D03*
X476378D02*
D03*
Y255906D02*
D03*
X473819Y262205D02*
D03*
D33*
X484350Y307087D02*
D03*
Y305118D02*
D03*
Y303150D02*
D03*
Y301181D02*
D03*
Y299213D02*
D03*
Y297244D02*
D03*
Y295276D02*
D03*
Y293307D02*
D03*
Y291339D02*
D03*
Y289370D02*
D03*
Y287402D02*
D03*
X517618Y307087D02*
D03*
Y305118D02*
D03*
Y303150D02*
D03*
Y301181D02*
D03*
Y299213D02*
D03*
Y297244D02*
D03*
Y295276D02*
D03*
Y293307D02*
D03*
Y291339D02*
D03*
Y289370D02*
D03*
Y287402D02*
D03*
Y285433D02*
D03*
X484350D02*
D03*
D34*
X492126Y279626D02*
D03*
X494095D02*
D03*
X496063D02*
D03*
X498032D02*
D03*
X500000D02*
D03*
X501968D02*
D03*
X503937D02*
D03*
X505905D02*
D03*
X507874D02*
D03*
X509842D02*
D03*
X511811D02*
D03*
X509842Y312894D02*
D03*
X507874D02*
D03*
X505905D02*
D03*
X503937D02*
D03*
X501968D02*
D03*
X500000D02*
D03*
X498032D02*
D03*
X496063D02*
D03*
X494095D02*
D03*
X492126D02*
D03*
X490158D02*
D03*
Y279626D02*
D03*
X511811Y312894D02*
D03*
M02*
